<svg xmlns="http://www.w3.org/2000/svg" width="100%" height="100%">
  <text x="0%" y="2%" font-family="Verdana" font-size="10">2000</text>
  <line x1="0%" y1="0%" x2="0%" y2="100%" stroke="black"/>
  <text x="25%" y="2%" font-family="Verdana" font-size="10">2005</text>
  <line x1="25%" y1="0%" x2="25%" y2="100%" stroke="black"/>
  <text x="50%" y="2%" font-family="Verdana" font-size="10">2010</text>
  <line x1="50%" y1="0%" x2="50%" y2="100%" stroke="black"/>
  <text x="75%" y="2%" font-family="Verdana" font-size="10">2015</text>
  <line x1="75%" y1="0%" x2="75%" y2="100%" stroke="black"/>
  <text x="100%" y="2%" font-family="Verdana" font-size="10">2020</text>
  <line x1="100%" y1="0%" x2="100%" y2="100%" stroke="black"/>
  <text x="2%" y="100%" font-family="Verdana" font-size="10">0</text>
  <line x1="0%" y1="100%" x2="100%" y2="100%" stroke="black"/>
  <text x="2%" y="88.91352549889135255%" font-family="Verdana" font-size="10">100</text>
  <line x1="0%" y1="88.91352549889135255%" x2="100%" y2="88.91352549889135255%" stroke="black"/>
  <text x="2%" y="77.8270509977827051%" font-family="Verdana" font-size="10">200</text>
  <line x1="0%" y1="77.8270509977827051%" x2="100%" y2="77.8270509977827051%" stroke="black"/>
  <text x="2%" y="66.74057649667405765%" font-family="Verdana" font-size="10">300</text>
  <line x1="0%" y1="66.74057649667405765%" x2="100%" y2="66.74057649667405765%" stroke="black"/>
  <text x="2%" y="55.6541019955654102%" font-family="Verdana" font-size="10">400</text>
  <line x1="0%" y1="55.6541019955654102%" x2="100%" y2="55.6541019955654102%" stroke="black"/>
  <text x="2%" y="44.567627494456762749%" font-family="Verdana" font-size="10">500</text>
  <line x1="0%" y1="44.567627494456762749%" x2="100%" y2="44.567627494456762749%" stroke="black"/>
  <text x="2%" y="33.481152993348115299%" font-family="Verdana" font-size="10">600</text>
  <line x1="0%" y1="33.481152993348115299%" x2="100%" y2="33.481152993348115299%" stroke="black"/>
  <text x="2%" y="22.394678492239467849%" font-family="Verdana" font-size="10">700</text>
  <line x1="0%" y1="22.394678492239467849%" x2="100%" y2="22.394678492239467849%" stroke="black"/>
  <text x="2%" y="11.308203991130820399%" font-family="Verdana" font-size="10">800</text>
  <line x1="0%" y1="11.308203991130820399%" x2="100%" y2="11.308203991130820399%" stroke="black"/>
  <text x="2%" y="0.221729490022172949%" font-family="Verdana" font-size="10">900</text>
  <line x1="0%" y1="0.221729490022172949%" x2="100%" y2="0.221729490022172949%" stroke="black"/>
  <circle cx="-1305%" cy="99.889135254988913525%" r="3" fill="red"/>
  <circle cx="-1280%" cy="99.889135254988913525%" r="3" fill="red"/>
  <circle cx="-1230%" cy="99.778270509977827051%" r="3" fill="red"/>
  <circle cx="-1225%" cy="99.778270509977827051%" r="3" fill="red"/>
  <circle cx="-1185%" cy="99.889135254988913525%" r="3" fill="red"/>
  <circle cx="-1175%" cy="99.778270509977827051%" r="3" fill="red"/>
  <circle cx="-1135%" cy="99.667405764966740576%" r="3" fill="red"/>
  <circle cx="-1130%" cy="99.889135254988913525%" r="3" fill="red"/>
  <circle cx="-1100%" cy="99.445676274944567627%" r="3" fill="red"/>
  <circle cx="-1095%" cy="99.778270509977827051%" r="3" fill="red"/>
  <circle cx="-1090%" cy="99.556541019955654102%" r="3" fill="red"/>
  <circle cx="-1070%" cy="99.889135254988913525%" r="3" fill="red"/>
  <circle cx="-1045%" cy="99.889135254988913525%" r="3" fill="red"/>
  <circle cx="-1035%" cy="99.889135254988913525%" r="3" fill="red"/>
  <circle cx="-1015%" cy="99.889135254988913525%" r="3" fill="red"/>
  <circle cx="-1010%" cy="99.889135254988913525%" r="3" fill="red"/>
  <circle cx="-1005%" cy="99.778270509977827051%" r="3" fill="red"/>
  <circle cx="-990%" cy="99.889135254988913525%" r="3" fill="red"/>
  <circle cx="-985%" cy="99.556541019955654102%" r="3" fill="red"/>
  <circle cx="-980%" cy="99.889135254988913525%" r="3" fill="red"/>
  <circle cx="-970%" cy="99.778270509977827051%" r="3" fill="red"/>
  <circle cx="-950%" cy="99.889135254988913525%" r="3" fill="red"/>
  <circle cx="-905%" cy="99.889135254988913525%" r="3" fill="red"/>
  <circle cx="-900%" cy="99.556541019955654102%" r="3" fill="red"/>
  <circle cx="-890%" cy="99.778270509977827051%" r="3" fill="red"/>
  <circle cx="-880%" cy="98.891352549889135255%" r="3" fill="red"/>
  <circle cx="-865%" cy="99.889135254988913525%" r="3" fill="red"/>
  <circle cx="-850%" cy="99.889135254988913525%" r="3" fill="red"/>
  <circle cx="-845%" cy="99.778270509977827051%" r="3" fill="red"/>
  <circle cx="-840%" cy="99.889135254988913525%" r="3" fill="red"/>
  <circle cx="-820%" cy="99.778270509977827051%" r="3" fill="red"/>
  <circle cx="-815%" cy="99.334811529933481153%" r="3" fill="red"/>
  <circle cx="-800%" cy="99.445676274944567627%" r="3" fill="red"/>
  <circle cx="-785%" cy="99.778270509977827051%" r="3" fill="red"/>
  <circle cx="-775%" cy="99.556541019955654102%" r="3" fill="red"/>
  <circle cx="-770%" cy="99.889135254988913525%" r="3" fill="red"/>
  <circle cx="-765%" cy="99.667405764966740576%" r="3" fill="red"/>
  <circle cx="-760%" cy="99.778270509977827051%" r="3" fill="red"/>
  <circle cx="-750%" cy="99.889135254988913525%" r="3" fill="red"/>
  <circle cx="-745%" cy="99.889135254988913525%" r="3" fill="red"/>
  <circle cx="-740%" cy="99.778270509977827051%" r="3" fill="red"/>
  <circle cx="-735%" cy="99.778270509977827051%" r="3" fill="red"/>
  <circle cx="-730%" cy="99.556541019955654102%" r="3" fill="red"/>
  <circle cx="-725%" cy="99.889135254988913525%" r="3" fill="red"/>
  <circle cx="-720%" cy="99.889135254988913525%" r="3" fill="red"/>
  <circle cx="-715%" cy="99.334811529933481153%" r="3" fill="red"/>
  <circle cx="-710%" cy="99.889135254988913525%" r="3" fill="red"/>
  <circle cx="-700%" cy="99.889135254988913525%" r="3" fill="red"/>
  <circle cx="-695%" cy="99.445676274944567627%" r="3" fill="red"/>
  <circle cx="-690%" cy="98.669623059866962306%" r="3" fill="red"/>
  <circle cx="-685%" cy="99.889135254988913525%" r="3" fill="red"/>
  <circle cx="-680%" cy="99.889135254988913525%" r="3" fill="red"/>
  <circle cx="-675%" cy="99.889135254988913525%" r="3" fill="red"/>
  <circle cx="-670%" cy="99.556541019955654102%" r="3" fill="red"/>
  <circle cx="-665%" cy="99.667405764966740576%" r="3" fill="red"/>
  <circle cx="-660%" cy="99.667405764966740576%" r="3" fill="red"/>
  <circle cx="-655%" cy="99.556541019955654102%" r="3" fill="red"/>
  <circle cx="-650%" cy="99.002217294900221729%" r="3" fill="red"/>
  <circle cx="-645%" cy="99.223946784922394678%" r="3" fill="red"/>
  <circle cx="-640%" cy="99.667405764966740576%" r="3" fill="red"/>
  <circle cx="-635%" cy="99.889135254988913525%" r="3" fill="red"/>
  <circle cx="-630%" cy="99.334811529933481153%" r="3" fill="red"/>
  <circle cx="-625%" cy="99.223946784922394678%" r="3" fill="red"/>
  <circle cx="-620%" cy="99.556541019955654102%" r="3" fill="red"/>
  <circle cx="-615%" cy="98.78048780487804878%" r="3" fill="red"/>
  <circle cx="-610%" cy="97.78270509977827051%" r="3" fill="red"/>
  <circle cx="-605%" cy="98.78048780487804878%" r="3" fill="red"/>
  <circle cx="-600%" cy="98.78048780487804878%" r="3" fill="red"/>
  <circle cx="-595%" cy="99.667405764966740576%" r="3" fill="red"/>
  <circle cx="-590%" cy="99.778270509977827051%" r="3" fill="red"/>
  <circle cx="-585%" cy="99.667405764966740576%" r="3" fill="red"/>
  <circle cx="-580%" cy="98.558758314855875831%" r="3" fill="red"/>
  <circle cx="-575%" cy="98.78048780487804878%" r="3" fill="red"/>
  <circle cx="-570%" cy="98.891352549889135255%" r="3" fill="red"/>
  <circle cx="-565%" cy="98.337028824833702882%" r="3" fill="red"/>
  <circle cx="-560%" cy="97.893569844789356984%" r="3" fill="red"/>
  <circle cx="-555%" cy="98.558758314855875831%" r="3" fill="red"/>
  <circle cx="-550%" cy="97.78270509977827051%" r="3" fill="red"/>
  <circle cx="-545%" cy="98.669623059866962306%" r="3" fill="red"/>
  <circle cx="-540%" cy="99.445676274944567627%" r="3" fill="red"/>
  <circle cx="-535%" cy="99.002217294900221729%" r="3" fill="red"/>
  <circle cx="-530%" cy="97.117516629711751663%" r="3" fill="red"/>
  <circle cx="-525%" cy="98.115299334811529933%" r="3" fill="red"/>
  <circle cx="-520%" cy="99.445676274944567627%" r="3" fill="red"/>
  <circle cx="-515%" cy="99.667405764966740576%" r="3" fill="red"/>
  <circle cx="-510%" cy="99.445676274944567627%" r="3" fill="red"/>
  <circle cx="-505%" cy="99.889135254988913525%" r="3" fill="red"/>
  <circle cx="-500%" cy="99.667405764966740576%" r="3" fill="red"/>
  <circle cx="-495%" cy="98.891352549889135255%" r="3" fill="red"/>
  <circle cx="-490%" cy="98.891352549889135255%" r="3" fill="red"/>
  <circle cx="-485%" cy="99.778270509977827051%" r="3" fill="red"/>
  <circle cx="-480%" cy="98.78048780487804878%" r="3" fill="red"/>
  <circle cx="-475%" cy="99.113082039911308204%" r="3" fill="red"/>
  <circle cx="-470%" cy="99.778270509977827051%" r="3" fill="red"/>
  <circle cx="-465%" cy="98.558758314855875831%" r="3" fill="red"/>
  <circle cx="-460%" cy="99.556541019955654102%" r="3" fill="red"/>
  <circle cx="-455%" cy="99.113082039911308204%" r="3" fill="red"/>
  <circle cx="-450%" cy="98.004434589800443459%" r="3" fill="red"/>
  <circle cx="-445%" cy="99.445676274944567627%" r="3" fill="red"/>
  <circle cx="-440%" cy="99.113082039911308204%" r="3" fill="red"/>
  <circle cx="-435%" cy="97.450110864745011086%" r="3" fill="red"/>
  <circle cx="-430%" cy="92.12860310421286031%" r="3" fill="red"/>
  <circle cx="-425%" cy="99.223946784922394678%" r="3" fill="red"/>
  <circle cx="-420%" cy="99.445676274944567627%" r="3" fill="red"/>
  <circle cx="-415%" cy="98.558758314855875831%" r="3" fill="red"/>
  <circle cx="-410%" cy="99.002217294900221729%" r="3" fill="red"/>
  <circle cx="-405%" cy="98.447893569844789357%" r="3" fill="red"/>
  <circle cx="-400%" cy="98.558758314855875831%" r="3" fill="red"/>
  <circle cx="-395%" cy="98.447893569844789357%" r="3" fill="red"/>
  <circle cx="-390%" cy="99.113082039911308204%" r="3" fill="red"/>
  <circle cx="-385%" cy="99.667405764966740576%" r="3" fill="red"/>
  <circle cx="-380%" cy="98.337028824833702882%" r="3" fill="red"/>
  <circle cx="-375%" cy="98.226164079822616408%" r="3" fill="red"/>
  <circle cx="-370%" cy="97.450110864745011086%" r="3" fill="red"/>
  <circle cx="-365%" cy="98.78048780487804878%" r="3" fill="red"/>
  <circle cx="-360%" cy="99.113082039911308204%" r="3" fill="red"/>
  <circle cx="-355%" cy="99.556541019955654102%" r="3" fill="red"/>
  <circle cx="-350%" cy="98.891352549889135255%" r="3" fill="red"/>
  <circle cx="-345%" cy="96.674057649667405765%" r="3" fill="red"/>
  <circle cx="-340%" cy="98.447893569844789357%" r="3" fill="red"/>
  <circle cx="-335%" cy="93.34811529933481153%" r="3" fill="red"/>
  <circle cx="-330%" cy="98.669623059866962306%" r="3" fill="red"/>
  <circle cx="-325%" cy="99.223946784922394678%" r="3" fill="red"/>
  <circle cx="-320%" cy="99.002217294900221729%" r="3" fill="red"/>
  <circle cx="-315%" cy="99.778270509977827051%" r="3" fill="red"/>
  <circle cx="-310%" cy="99.556541019955654102%" r="3" fill="red"/>
  <circle cx="-305%" cy="97.671840354767184035%" r="3" fill="red"/>
  <circle cx="-300%" cy="88.137472283813747228%" r="3" fill="red"/>
  <circle cx="-295%" cy="93.015521064301552106%" r="3" fill="red"/>
  <circle cx="-290%" cy="90.022172949002217295%" r="3" fill="red"/>
  <circle cx="-285%" cy="98.891352549889135255%" r="3" fill="red"/>
  <circle cx="-280%" cy="96.895787139689578714%" r="3" fill="red"/>
  <circle cx="-275%" cy="99.445676274944567627%" r="3" fill="red"/>
  <circle cx="-270%" cy="96.895787139689578714%" r="3" fill="red"/>
  <circle cx="-265%" cy="93.902439024390243902%" r="3" fill="red"/>
  <circle cx="-260%" cy="98.447893569844789357%" r="3" fill="red"/>
  <circle cx="-255%" cy="99.667405764966740576%" r="3" fill="red"/>
  <circle cx="-250%" cy="99.223946784922394678%" r="3" fill="red"/>
  <circle cx="-245%" cy="99.667405764966740576%" r="3" fill="red"/>
  <circle cx="-240%" cy="99.778270509977827051%" r="3" fill="red"/>
  <circle cx="-235%" cy="99.445676274944567627%" r="3" fill="red"/>
  <circle cx="-230%" cy="97.78270509977827051%" r="3" fill="red"/>
  <circle cx="-225%" cy="98.78048780487804878%" r="3" fill="red"/>
  <circle cx="-220%" cy="98.115299334811529933%" r="3" fill="red"/>
  <circle cx="-215%" cy="98.78048780487804878%" r="3" fill="red"/>
  <circle cx="-210%" cy="99.002217294900221729%" r="3" fill="red"/>
  <circle cx="-205%" cy="99.223946784922394678%" r="3" fill="red"/>
  <circle cx="-200%" cy="99.667405764966740576%" r="3" fill="red"/>
  <circle cx="-195%" cy="99.334811529933481153%" r="3" fill="red"/>
  <circle cx="-190%" cy="99.334811529933481153%" r="3" fill="red"/>
  <circle cx="-185%" cy="99.002217294900221729%" r="3" fill="red"/>
  <circle cx="-180%" cy="99.889135254988913525%" r="3" fill="red"/>
  <circle cx="-175%" cy="99.334811529933481153%" r="3" fill="red"/>
  <circle cx="-170%" cy="98.78048780487804878%" r="3" fill="red"/>
  <circle cx="-165%" cy="98.891352549889135255%" r="3" fill="red"/>
  <circle cx="-160%" cy="99.667405764966740576%" r="3" fill="red"/>
  <circle cx="-155%" cy="99.223946784922394678%" r="3" fill="red"/>
  <circle cx="-150%" cy="97.117516629711751663%" r="3" fill="red"/>
  <circle cx="-145%" cy="98.447893569844789357%" r="3" fill="red"/>
  <circle cx="-140%" cy="96.008869179600886918%" r="3" fill="red"/>
  <circle cx="-135%" cy="97.893569844789356984%" r="3" fill="red"/>
  <circle cx="-130%" cy="98.226164079822616408%" r="3" fill="red"/>
  <circle cx="-125%" cy="97.006651884700665188%" r="3" fill="red"/>
  <circle cx="-120%" cy="98.004434589800443459%" r="3" fill="red"/>
  <circle cx="-115%" cy="96.56319290465631929%" r="3" fill="red"/>
  <circle cx="-110%" cy="98.115299334811529933%" r="3" fill="red"/>
  <circle cx="-105%" cy="97.78270509977827051%" r="3" fill="red"/>
  <circle cx="-100%" cy="96.341463414634146341%" r="3" fill="red"/>
  <circle cx="-95%" cy="96.56319290465631929%" r="3" fill="red"/>
  <circle cx="-90%" cy="98.004434589800443459%" r="3" fill="red"/>
  <circle cx="-85%" cy="97.006651884700665188%" r="3" fill="red"/>
  <circle cx="-80%" cy="97.006651884700665188%" r="3" fill="red"/>
  <circle cx="-75%" cy="94.900221729490022173%" r="3" fill="red"/>
  <circle cx="-70%" cy="89.91130820399113082%" r="3" fill="red"/>
  <circle cx="-65%" cy="84.922394678492239468%" r="3" fill="red"/>
  <circle cx="-60%" cy="81.596452328159645233%" r="3" fill="red"/>
  <circle cx="-55%" cy="76.718403547671840355%" r="3" fill="red"/>
  <circle cx="-50%" cy="81.818181818181818182%" r="3" fill="red"/>
  <circle cx="-45%" cy="91.463414634146341463%" r="3" fill="red"/>
  <circle cx="-40%" cy="81.929046563192904656%" r="3" fill="red"/>
  <circle cx="-35%" cy="65.188470066518847007%" r="3" fill="red"/>
  <circle cx="-30%" cy="62.30598669623059867%" r="3" fill="red"/>
  <circle cx="-25%" cy="52.993348115299334812%" r="3" fill="red"/>
  <circle cx="-20%" cy="33.702882483370288248%" r="3" fill="red"/>
  <circle cx="-15%" cy="-285.698447893569844789%" r="3" fill="red"/>
  <circle cx="-10%" cy="-220.177383592017738359%" r="3" fill="red"/>
  <circle cx="-5%" cy="84.257206208425720621%" r="3" fill="red"/>
  <circle cx="0%" cy="81.04212860310421286%" r="3" fill="red"/>
  <circle cx="5%" cy="79.822616407982261641%" r="3" fill="red"/>
  <circle cx="10%" cy="77.050997782705099778%" r="3" fill="red"/>
  <circle cx="15%" cy="73.946784922394678492%" r="3" fill="red"/>
  <circle cx="20%" cy="65.410199556541019956%" r="3" fill="red"/>
  <circle cx="25%" cy="64.301552106430155211%" r="3" fill="red"/>
  <circle cx="30%" cy="57.649667405764966741%" r="3" fill="red"/>
  <circle cx="35%" cy="48.78048780487804878%" r="3" fill="red"/>
  <circle cx="40%" cy="79.379157427937915743%" r="3" fill="red"/>
  <circle cx="45%" cy="82.815964523281596452%" r="3" fill="red"/>
  <circle cx="50%" cy="81.596452328159645233%" r="3" fill="red"/>
  <circle cx="55%" cy="83.702882483370288248%" r="3" fill="red"/>
  <circle cx="60%" cy="82.150776053215077605%" r="3" fill="red"/>
  <circle cx="65%" cy="88.691796008869179601%" r="3" fill="red"/>
  <circle cx="70%" cy="72.062084257206208426%" r="3" fill="red"/>
  <circle cx="75%" cy="72.727272727272727273%" r="3" fill="red"/>
  <circle cx="80%" cy="71.396895787139689579%" r="3" fill="red"/>
  <circle cx="85%" cy="34.700665188470066519%" r="3" fill="red"/>
  <circle cx="90%" cy="17.960088691796008869%" r="3" fill="red"/>
  <circle cx="95%" cy="0%" r="3" fill="red"/>
  <circle cx="100%" cy="40.576496674057649667%" r="3" fill="red"/>
  <circle cx="105%" cy="8.314855875831485588%" r="3" fill="red"/>
  <circle cx="110%" cy="86.807095343680709534%" r="3" fill="red"/>
  <circle cx="-1305%" cy="99.889135254988913525%" r="3" fill="blue"/>
  <circle cx="-1230%" cy="99.778270509977827051%" r="3" fill="blue"/>
  <circle cx="-1185%" cy="99.889135254988913525%" r="3" fill="blue"/>
  <circle cx="-1175%" cy="99.778270509977827051%" r="3" fill="blue"/>
  <circle cx="-1135%" cy="99.667405764966740576%" r="3" fill="blue"/>
  <circle cx="-1100%" cy="99.445676274944567627%" r="3" fill="blue"/>
  <circle cx="-1095%" cy="99.778270509977827051%" r="3" fill="blue"/>
  <circle cx="-1090%" cy="99.556541019955654102%" r="3" fill="blue"/>
  <circle cx="-1045%" cy="99.889135254988913525%" r="3" fill="blue"/>
  <circle cx="-1010%" cy="99.889135254988913525%" r="3" fill="blue"/>
  <circle cx="-1005%" cy="99.889135254988913525%" r="3" fill="blue"/>
  <circle cx="-990%" cy="99.889135254988913525%" r="3" fill="blue"/>
  <circle cx="-985%" cy="99.556541019955654102%" r="3" fill="blue"/>
  <circle cx="-970%" cy="99.778270509977827051%" r="3" fill="blue"/>
  <circle cx="-950%" cy="99.889135254988913525%" r="3" fill="blue"/>
  <circle cx="-880%" cy="98.891352549889135255%" r="3" fill="blue"/>
  <circle cx="-815%" cy="99.778270509977827051%" r="3" fill="blue"/>
  <circle cx="-785%" cy="99.778270509977827051%" r="3" fill="blue"/>
  <circle cx="-775%" cy="99.889135254988913525%" r="3" fill="blue"/>
  <circle cx="-765%" cy="99.667405764966740576%" r="3" fill="blue"/>
  <circle cx="-760%" cy="99.889135254988913525%" r="3" fill="blue"/>
  <circle cx="-730%" cy="99.889135254988913525%" r="3" fill="blue"/>
  <circle cx="-720%" cy="99.889135254988913525%" r="3" fill="blue"/>
  <circle cx="-715%" cy="99.334811529933481153%" r="3" fill="blue"/>
  <circle cx="-680%" cy="99.889135254988913525%" r="3" fill="blue"/>
  <circle cx="-670%" cy="99.889135254988913525%" r="3" fill="blue"/>
  <circle cx="-665%" cy="99.778270509977827051%" r="3" fill="blue"/>
  <circle cx="-660%" cy="99.889135254988913525%" r="3" fill="blue"/>
  <circle cx="-650%" cy="99.889135254988913525%" r="3" fill="blue"/>
  <circle cx="-645%" cy="99.667405764966740576%" r="3" fill="blue"/>
  <circle cx="-630%" cy="99.445676274944567627%" r="3" fill="blue"/>
  <circle cx="-625%" cy="99.556541019955654102%" r="3" fill="blue"/>
  <circle cx="-620%" cy="99.889135254988913525%" r="3" fill="blue"/>
  <circle cx="-615%" cy="99.667405764966740576%" r="3" fill="blue"/>
  <circle cx="-610%" cy="99.113082039911308204%" r="3" fill="blue"/>
  <circle cx="-605%" cy="99.113082039911308204%" r="3" fill="blue"/>
  <circle cx="-600%" cy="99.667405764966740576%" r="3" fill="blue"/>
  <circle cx="-595%" cy="99.889135254988913525%" r="3" fill="blue"/>
  <circle cx="-590%" cy="99.889135254988913525%" r="3" fill="blue"/>
  <circle cx="-580%" cy="99.778270509977827051%" r="3" fill="blue"/>
  <circle cx="-575%" cy="99.778270509977827051%" r="3" fill="blue"/>
  <circle cx="-570%" cy="99.889135254988913525%" r="3" fill="blue"/>
  <circle cx="-565%" cy="99.667405764966740576%" r="3" fill="blue"/>
  <circle cx="-560%" cy="99.223946784922394678%" r="3" fill="blue"/>
  <circle cx="-555%" cy="99.778270509977827051%" r="3" fill="blue"/>
  <circle cx="-550%" cy="99.223946784922394678%" r="3" fill="blue"/>
  <circle cx="-545%" cy="98.891352549889135255%" r="3" fill="blue"/>
  <circle cx="-540%" cy="99.556541019955654102%" r="3" fill="blue"/>
  <circle cx="-535%" cy="99.778270509977827051%" r="3" fill="blue"/>
  <circle cx="-530%" cy="98.226164079822616408%" r="3" fill="blue"/>
  <circle cx="-525%" cy="98.78048780487804878%" r="3" fill="blue"/>
  <circle cx="-520%" cy="99.667405764966740576%" r="3" fill="blue"/>
  <circle cx="-515%" cy="99.889135254988913525%" r="3" fill="blue"/>
  <circle cx="-510%" cy="99.556541019955654102%" r="3" fill="blue"/>
  <circle cx="-505%" cy="99.889135254988913525%" r="3" fill="blue"/>
  <circle cx="-495%" cy="99.667405764966740576%" r="3" fill="blue"/>
  <circle cx="-490%" cy="99.889135254988913525%" r="3" fill="blue"/>
  <circle cx="-480%" cy="98.891352549889135255%" r="3" fill="blue"/>
  <circle cx="-475%" cy="99.223946784922394678%" r="3" fill="blue"/>
  <circle cx="-470%" cy="99.778270509977827051%" r="3" fill="blue"/>
  <circle cx="-465%" cy="98.558758314855875831%" r="3" fill="blue"/>
  <circle cx="-455%" cy="99.556541019955654102%" r="3" fill="blue"/>
  <circle cx="-450%" cy="99.556541019955654102%" r="3" fill="blue"/>
  <circle cx="-445%" cy="99.667405764966740576%" r="3" fill="blue"/>
  <circle cx="-440%" cy="99.445676274944567627%" r="3" fill="blue"/>
  <circle cx="-435%" cy="98.226164079822616408%" r="3" fill="blue"/>
  <circle cx="-430%" cy="92.461197339246119734%" r="3" fill="blue"/>
  <circle cx="-425%" cy="99.334811529933481153%" r="3" fill="blue"/>
  <circle cx="-420%" cy="99.445676274944567627%" r="3" fill="blue"/>
  <circle cx="-415%" cy="98.669623059866962306%" r="3" fill="blue"/>
  <circle cx="-410%" cy="99.223946784922394678%" r="3" fill="blue"/>
  <circle cx="-405%" cy="98.669623059866962306%" r="3" fill="blue"/>
  <circle cx="-400%" cy="98.891352549889135255%" r="3" fill="blue"/>
  <circle cx="-395%" cy="98.78048780487804878%" r="3" fill="blue"/>
  <circle cx="-390%" cy="99.667405764966740576%" r="3" fill="blue"/>
  <circle cx="-385%" cy="99.778270509977827051%" r="3" fill="blue"/>
  <circle cx="-380%" cy="99.113082039911308204%" r="3" fill="blue"/>
  <circle cx="-375%" cy="98.226164079822616408%" r="3" fill="blue"/>
  <circle cx="-370%" cy="97.78270509977827051%" r="3" fill="blue"/>
  <circle cx="-365%" cy="99.002217294900221729%" r="3" fill="blue"/>
  <circle cx="-360%" cy="99.334811529933481153%" r="3" fill="blue"/>
  <circle cx="-355%" cy="99.667405764966740576%" r="3" fill="blue"/>
  <circle cx="-350%" cy="99.334811529933481153%" r="3" fill="blue"/>
  <circle cx="-345%" cy="96.674057649667405765%" r="3" fill="blue"/>
  <circle cx="-340%" cy="98.669623059866962306%" r="3" fill="blue"/>
  <circle cx="-335%" cy="94.013303769401330377%" r="3" fill="blue"/>
  <circle cx="-330%" cy="99.667405764966740576%" r="3" fill="blue"/>
  <circle cx="-325%" cy="99.778270509977827051%" r="3" fill="blue"/>
  <circle cx="-315%" cy="99.889135254988913525%" r="3" fill="blue"/>
  <circle cx="-305%" cy="97.893569844789356984%" r="3" fill="blue"/>
  <circle cx="-300%" cy="88.137472283813747228%" r="3" fill="blue"/>
  <circle cx="-295%" cy="93.237250554323725055%" r="3" fill="blue"/>
  <circle cx="-290%" cy="90.022172949002217295%" r="3" fill="blue"/>
  <circle cx="-285%" cy="99.667405764966740576%" r="3" fill="blue"/>
  <circle cx="-280%" cy="96.895787139689578714%" r="3" fill="blue"/>
  <circle cx="-275%" cy="99.445676274944567627%" r="3" fill="blue"/>
  <circle cx="-270%" cy="96.895787139689578714%" r="3" fill="blue"/>
  <circle cx="-265%" cy="93.902439024390243902%" r="3" fill="blue"/>
  <circle cx="-260%" cy="98.558758314855875831%" r="3" fill="blue"/>
  <circle cx="-255%" cy="99.778270509977827051%" r="3" fill="blue"/>
  <circle cx="-250%" cy="99.778270509977827051%" r="3" fill="blue"/>
  <circle cx="-235%" cy="99.667405764966740576%" r="3" fill="blue"/>
  <circle cx="-230%" cy="98.447893569844789357%" r="3" fill="blue"/>
  <circle cx="-225%" cy="99.334811529933481153%" r="3" fill="blue"/>
  <circle cx="-220%" cy="99.889135254988913525%" r="3" fill="blue"/>
  <circle cx="-210%" cy="99.889135254988913525%" r="3" fill="blue"/>
  <circle cx="-195%" cy="99.889135254988913525%" r="3" fill="blue"/>
  <circle cx="-185%" cy="99.778270509977827051%" r="3" fill="blue"/>
  <circle cx="-175%" cy="99.889135254988913525%" r="3" fill="blue"/>
  <circle cx="-170%" cy="99.667405764966740576%" r="3" fill="blue"/>
  <circle cx="-165%" cy="99.778270509977827051%" r="3" fill="blue"/>
  <circle cx="-160%" cy="99.889135254988913525%" r="3" fill="blue"/>
  <circle cx="-155%" cy="99.889135254988913525%" r="3" fill="blue"/>
  <circle cx="-150%" cy="99.889135254988913525%" r="3" fill="blue"/>
  <circle cx="-145%" cy="99.667405764966740576%" r="3" fill="blue"/>
  <circle cx="-140%" cy="99.778270509977827051%" r="3" fill="blue"/>
  <circle cx="-135%" cy="99.889135254988913525%" r="3" fill="blue"/>
  <circle cx="-130%" cy="99.889135254988913525%" r="3" fill="blue"/>
  <circle cx="-125%" cy="99.556541019955654102%" r="3" fill="blue"/>
  <circle cx="-110%" cy="99.778270509977827051%" r="3" fill="blue"/>
  <circle cx="-100%" cy="99.556541019955654102%" r="3" fill="blue"/>
  <circle cx="-95%" cy="99.667405764966740576%" r="3" fill="blue"/>
  <circle cx="-85%" cy="99.889135254988913525%" r="3" fill="blue"/>
  <circle cx="-80%" cy="99.556541019955654102%" r="3" fill="blue"/>
  <circle cx="-75%" cy="99.667405764966740576%" r="3" fill="blue"/>
  <circle cx="-70%" cy="99.889135254988913525%" r="3" fill="blue"/>
  <circle cx="-65%" cy="99.223946784922394678%" r="3" fill="blue"/>
  <circle cx="-60%" cy="99.778270509977827051%" r="3" fill="blue"/>
  <circle cx="-55%" cy="99.445676274944567627%" r="3" fill="blue"/>
  <circle cx="-50%" cy="99.556541019955654102%" r="3" fill="blue"/>
  <circle cx="-45%" cy="99.889135254988913525%" r="3" fill="blue"/>
  <circle cx="-40%" cy="89.578713968957871397%" r="3" fill="blue"/>
  <circle cx="-35%" cy="82.039911308203991131%" r="3" fill="blue"/>
  <circle cx="-30%" cy="79.157427937915742794%" r="3" fill="blue"/>
  <circle cx="-25%" cy="63.192904656319290466%" r="3" fill="blue"/>
  <circle cx="-20%" cy="43.015521064301552106%" r="3" fill="blue"/>
  <circle cx="-15%" cy="-276.496674057649667406%" r="3" fill="blue"/>
  <circle cx="-10%" cy="-212.195121951219512195%" r="3" fill="blue"/>
  <circle cx="-5%" cy="99.667405764966740576%" r="3" fill="blue"/>
  <circle cx="0%" cy="98.669623059866962306%" r="3" fill="blue"/>
  <circle cx="5%" cy="99.223946784922394678%" r="3" fill="blue"/>
  <circle cx="10%" cy="90.354767184035476718%" r="3" fill="blue"/>
  <circle cx="15%" cy="86.917960088691796009%" r="3" fill="blue"/>
  <circle cx="20%" cy="79.711751662971175166%" r="3" fill="blue"/>
  <circle cx="25%" cy="81.818181818181818182%" r="3" fill="blue"/>
  <circle cx="30%" cy="64.301552106430155211%" r="3" fill="blue"/>
  <circle cx="35%" cy="59.090909090909090909%" r="3" fill="blue"/>
  <circle cx="40%" cy="84.257206208425720621%" r="3" fill="blue"/>
  <circle cx="45%" cy="86.474501108647450111%" r="3" fill="blue"/>
  <circle cx="50%" cy="87.69401330376940133%" r="3" fill="blue"/>
  <circle cx="55%" cy="88.91352549889135255%" r="3" fill="blue"/>
  <circle cx="60%" cy="88.137472283813747228%" r="3" fill="blue"/>
  <circle cx="65%" cy="93.237250554323725055%" r="3" fill="blue"/>
  <circle cx="70%" cy="76.496674057649667406%" r="3" fill="blue"/>
  <circle cx="75%" cy="78.935698447893569845%" r="3" fill="blue"/>
  <circle cx="80%" cy="81.818181818181818182%" r="3" fill="blue"/>
  <circle cx="85%" cy="57.427937915742793792%" r="3" fill="blue"/>
  <circle cx="90%" cy="32.483370288248337029%" r="3" fill="blue"/>
  <circle cx="95%" cy="24.279379157427937916%" r="3" fill="blue"/>
  <circle cx="100%" cy="44.3458980044345898%" r="3" fill="blue"/>
  <circle cx="105%" cy="13.968957871396895787%" r="3" fill="blue"/>
  <circle cx="110%" cy="87.250554323725055432%" r="3" fill="blue"/>
  <circle cx="-1280%" cy="99.889135254988913525%" r="3" fill="green"/>
  <circle cx="-1225%" cy="99.778270509977827051%" r="3" fill="green"/>
  <circle cx="-1130%" cy="99.889135254988913525%" r="3" fill="green"/>
  <circle cx="-1070%" cy="99.889135254988913525%" r="3" fill="green"/>
  <circle cx="-1035%" cy="99.889135254988913525%" r="3" fill="green"/>
  <circle cx="-1015%" cy="99.889135254988913525%" r="3" fill="green"/>
  <circle cx="-1005%" cy="99.889135254988913525%" r="3" fill="green"/>
  <circle cx="-980%" cy="99.889135254988913525%" r="3" fill="green"/>
  <circle cx="-905%" cy="99.889135254988913525%" r="3" fill="green"/>
  <circle cx="-900%" cy="99.556541019955654102%" r="3" fill="green"/>
  <circle cx="-890%" cy="99.778270509977827051%" r="3" fill="green"/>
  <circle cx="-865%" cy="99.889135254988913525%" r="3" fill="green"/>
  <circle cx="-850%" cy="99.889135254988913525%" r="3" fill="green"/>
  <circle cx="-845%" cy="99.778270509977827051%" r="3" fill="green"/>
  <circle cx="-840%" cy="99.889135254988913525%" r="3" fill="green"/>
  <circle cx="-820%" cy="99.778270509977827051%" r="3" fill="green"/>
  <circle cx="-815%" cy="99.556541019955654102%" r="3" fill="green"/>
  <circle cx="-800%" cy="99.445676274944567627%" r="3" fill="green"/>
  <circle cx="-775%" cy="99.667405764966740576%" r="3" fill="green"/>
  <circle cx="-770%" cy="99.889135254988913525%" r="3" fill="green"/>
  <circle cx="-760%" cy="99.889135254988913525%" r="3" fill="green"/>
  <circle cx="-750%" cy="99.889135254988913525%" r="3" fill="green"/>
  <circle cx="-745%" cy="99.889135254988913525%" r="3" fill="green"/>
  <circle cx="-740%" cy="99.778270509977827051%" r="3" fill="green"/>
  <circle cx="-735%" cy="99.778270509977827051%" r="3" fill="green"/>
  <circle cx="-730%" cy="99.667405764966740576%" r="3" fill="green"/>
  <circle cx="-725%" cy="99.889135254988913525%" r="3" fill="green"/>
  <circle cx="-710%" cy="99.889135254988913525%" r="3" fill="green"/>
  <circle cx="-700%" cy="99.889135254988913525%" r="3" fill="green"/>
  <circle cx="-695%" cy="99.445676274944567627%" r="3" fill="green"/>
  <circle cx="-690%" cy="98.669623059866962306%" r="3" fill="green"/>
  <circle cx="-685%" cy="99.889135254988913525%" r="3" fill="green"/>
  <circle cx="-675%" cy="99.889135254988913525%" r="3" fill="green"/>
  <circle cx="-670%" cy="99.667405764966740576%" r="3" fill="green"/>
  <circle cx="-665%" cy="99.889135254988913525%" r="3" fill="green"/>
  <circle cx="-660%" cy="99.778270509977827051%" r="3" fill="green"/>
  <circle cx="-655%" cy="99.556541019955654102%" r="3" fill="green"/>
  <circle cx="-650%" cy="99.113082039911308204%" r="3" fill="green"/>
  <circle cx="-645%" cy="99.556541019955654102%" r="3" fill="green"/>
  <circle cx="-640%" cy="99.667405764966740576%" r="3" fill="green"/>
  <circle cx="-635%" cy="99.889135254988913525%" r="3" fill="green"/>
  <circle cx="-630%" cy="99.889135254988913525%" r="3" fill="green"/>
  <circle cx="-625%" cy="99.667405764966740576%" r="3" fill="green"/>
  <circle cx="-620%" cy="99.667405764966740576%" r="3" fill="green"/>
  <circle cx="-615%" cy="99.113082039911308204%" r="3" fill="green"/>
  <circle cx="-610%" cy="98.669623059866962306%" r="3" fill="green"/>
  <circle cx="-605%" cy="99.667405764966740576%" r="3" fill="green"/>
  <circle cx="-600%" cy="99.113082039911308204%" r="3" fill="green"/>
  <circle cx="-595%" cy="99.778270509977827051%" r="3" fill="green"/>
  <circle cx="-590%" cy="99.889135254988913525%" r="3" fill="green"/>
  <circle cx="-585%" cy="99.667405764966740576%" r="3" fill="green"/>
  <circle cx="-580%" cy="98.78048780487804878%" r="3" fill="green"/>
  <circle cx="-575%" cy="99.002217294900221729%" r="3" fill="green"/>
  <circle cx="-570%" cy="99.002217294900221729%" r="3" fill="green"/>
  <circle cx="-565%" cy="98.669623059866962306%" r="3" fill="green"/>
  <circle cx="-560%" cy="98.669623059866962306%" r="3" fill="green"/>
  <circle cx="-555%" cy="98.78048780487804878%" r="3" fill="green"/>
  <circle cx="-550%" cy="98.558758314855875831%" r="3" fill="green"/>
  <circle cx="-545%" cy="99.778270509977827051%" r="3" fill="green"/>
  <circle cx="-540%" cy="99.889135254988913525%" r="3" fill="green"/>
  <circle cx="-535%" cy="99.223946784922394678%" r="3" fill="green"/>
  <circle cx="-530%" cy="98.891352549889135255%" r="3" fill="green"/>
  <circle cx="-525%" cy="99.334811529933481153%" r="3" fill="green"/>
  <circle cx="-520%" cy="99.778270509977827051%" r="3" fill="green"/>
  <circle cx="-515%" cy="99.778270509977827051%" r="3" fill="green"/>
  <circle cx="-510%" cy="99.889135254988913525%" r="3" fill="green"/>
  <circle cx="-500%" cy="99.667405764966740576%" r="3" fill="green"/>
  <circle cx="-495%" cy="99.223946784922394678%" r="3" fill="green"/>
  <circle cx="-490%" cy="99.002217294900221729%" r="3" fill="green"/>
  <circle cx="-485%" cy="99.778270509977827051%" r="3" fill="green"/>
  <circle cx="-480%" cy="99.889135254988913525%" r="3" fill="green"/>
  <circle cx="-475%" cy="99.889135254988913525%" r="3" fill="green"/>
  <circle cx="-460%" cy="99.556541019955654102%" r="3" fill="green"/>
  <circle cx="-455%" cy="99.556541019955654102%" r="3" fill="green"/>
  <circle cx="-450%" cy="98.447893569844789357%" r="3" fill="green"/>
  <circle cx="-445%" cy="99.778270509977827051%" r="3" fill="green"/>
  <circle cx="-440%" cy="99.667405764966740576%" r="3" fill="green"/>
  <circle cx="-435%" cy="99.223946784922394678%" r="3" fill="green"/>
  <circle cx="-430%" cy="99.667405764966740576%" r="3" fill="green"/>
  <circle cx="-425%" cy="99.889135254988913525%" r="3" fill="green"/>
  <circle cx="-415%" cy="99.889135254988913525%" r="3" fill="green"/>
  <circle cx="-410%" cy="99.778270509977827051%" r="3" fill="green"/>
  <circle cx="-405%" cy="99.778270509977827051%" r="3" fill="green"/>
  <circle cx="-400%" cy="99.667405764966740576%" r="3" fill="green"/>
  <circle cx="-395%" cy="99.667405764966740576%" r="3" fill="green"/>
  <circle cx="-390%" cy="99.445676274944567627%" r="3" fill="green"/>
  <circle cx="-385%" cy="99.889135254988913525%" r="3" fill="green"/>
  <circle cx="-380%" cy="99.223946784922394678%" r="3" fill="green"/>
  <circle cx="-370%" cy="99.667405764966740576%" r="3" fill="green"/>
  <circle cx="-365%" cy="99.778270509977827051%" r="3" fill="green"/>
  <circle cx="-360%" cy="99.778270509977827051%" r="3" fill="green"/>
  <circle cx="-355%" cy="99.889135254988913525%" r="3" fill="green"/>
  <circle cx="-350%" cy="99.556541019955654102%" r="3" fill="green"/>
  <circle cx="-340%" cy="99.778270509977827051%" r="3" fill="green"/>
  <circle cx="-335%" cy="99.334811529933481153%" r="3" fill="green"/>
  <circle cx="-330%" cy="99.002217294900221729%" r="3" fill="green"/>
  <circle cx="-325%" cy="99.445676274944567627%" r="3" fill="green"/>
  <circle cx="-320%" cy="99.002217294900221729%" r="3" fill="green"/>
  <circle cx="-315%" cy="99.889135254988913525%" r="3" fill="green"/>
  <circle cx="-310%" cy="99.556541019955654102%" r="3" fill="green"/>
  <circle cx="-305%" cy="99.778270509977827051%" r="3" fill="green"/>
  <circle cx="-295%" cy="99.778270509977827051%" r="3" fill="green"/>
  <circle cx="-285%" cy="99.223946784922394678%" r="3" fill="green"/>
  <circle cx="-260%" cy="99.889135254988913525%" r="3" fill="green"/>
  <circle cx="-255%" cy="99.889135254988913525%" r="3" fill="green"/>
  <circle cx="-250%" cy="99.445676274944567627%" r="3" fill="green"/>
  <circle cx="-245%" cy="99.667405764966740576%" r="3" fill="green"/>
  <circle cx="-240%" cy="99.778270509977827051%" r="3" fill="green"/>
  <circle cx="-235%" cy="99.778270509977827051%" r="3" fill="green"/>
  <circle cx="-230%" cy="99.334811529933481153%" r="3" fill="green"/>
  <circle cx="-225%" cy="99.445676274944567627%" r="3" fill="green"/>
  <circle cx="-220%" cy="98.226164079822616408%" r="3" fill="green"/>
  <circle cx="-215%" cy="98.78048780487804878%" r="3" fill="green"/>
  <circle cx="-210%" cy="99.113082039911308204%" r="3" fill="green"/>
  <circle cx="-205%" cy="99.223946784922394678%" r="3" fill="green"/>
  <circle cx="-200%" cy="99.667405764966740576%" r="3" fill="green"/>
  <circle cx="-195%" cy="99.445676274944567627%" r="3" fill="green"/>
  <circle cx="-190%" cy="99.334811529933481153%" r="3" fill="green"/>
  <circle cx="-185%" cy="99.223946784922394678%" r="3" fill="green"/>
  <circle cx="-180%" cy="99.889135254988913525%" r="3" fill="green"/>
  <circle cx="-175%" cy="99.445676274944567627%" r="3" fill="green"/>
  <circle cx="-170%" cy="99.113082039911308204%" r="3" fill="green"/>
  <circle cx="-165%" cy="99.113082039911308204%" r="3" fill="green"/>
  <circle cx="-160%" cy="99.778270509977827051%" r="3" fill="green"/>
  <circle cx="-155%" cy="99.334811529933481153%" r="3" fill="green"/>
  <circle cx="-150%" cy="97.228381374722838137%" r="3" fill="green"/>
  <circle cx="-145%" cy="98.78048780487804878%" r="3" fill="green"/>
  <circle cx="-140%" cy="96.230598669623059867%" r="3" fill="green"/>
  <circle cx="-135%" cy="98.004434589800443459%" r="3" fill="green"/>
  <circle cx="-130%" cy="98.337028824833702882%" r="3" fill="green"/>
  <circle cx="-125%" cy="97.450110864745011086%" r="3" fill="green"/>
  <circle cx="-120%" cy="98.004434589800443459%" r="3" fill="green"/>
  <circle cx="-115%" cy="96.56319290465631929%" r="3" fill="green"/>
  <circle cx="-110%" cy="98.337028824833702882%" r="3" fill="green"/>
  <circle cx="-105%" cy="97.78270509977827051%" r="3" fill="green"/>
  <circle cx="-100%" cy="96.784922394678492239%" r="3" fill="green"/>
  <circle cx="-95%" cy="96.895787139689578714%" r="3" fill="green"/>
  <circle cx="-90%" cy="98.004434589800443459%" r="3" fill="green"/>
  <circle cx="-85%" cy="97.117516629711751663%" r="3" fill="green"/>
  <circle cx="-80%" cy="97.450110864745011086%" r="3" fill="green"/>
  <circle cx="-75%" cy="95.232815964523281596%" r="3" fill="green"/>
  <circle cx="-70%" cy="90.022172949002217295%" r="3" fill="green"/>
  <circle cx="-65%" cy="85.698447893569844789%" r="3" fill="green"/>
  <circle cx="-60%" cy="81.818181818181818182%" r="3" fill="green"/>
  <circle cx="-55%" cy="77.272727272727272727%" r="3" fill="green"/>
  <circle cx="-50%" cy="82.26164079822616408%" r="3" fill="green"/>
  <circle cx="-45%" cy="91.574279379157427938%" r="3" fill="green"/>
  <circle cx="-40%" cy="92.350332594235033259%" r="3" fill="green"/>
  <circle cx="-35%" cy="83.148558758314855876%" r="3" fill="green"/>
  <circle cx="-30%" cy="83.148558758314855876%" r="3" fill="green"/>
  <circle cx="-25%" cy="89.800443458980044346%" r="3" fill="green"/>
  <circle cx="-20%" cy="90.687361419068736142%" r="3" fill="green"/>
  <circle cx="-15%" cy="90.798226164079822616%" r="3" fill="green"/>
  <circle cx="-10%" cy="92.017738359201773836%" r="3" fill="green"/>
  <circle cx="-5%" cy="84.589800443458980044%" r="3" fill="green"/>
  <circle cx="0%" cy="82.372505543237250554%" r="3" fill="green"/>
  <circle cx="5%" cy="80.598669623059866962%" r="3" fill="green"/>
  <circle cx="10%" cy="86.69623059866962306%" r="3" fill="green"/>
  <circle cx="15%" cy="87.028824833702882483%" r="3" fill="green"/>
  <circle cx="20%" cy="85.698447893569844789%" r="3" fill="green"/>
  <circle cx="25%" cy="82.483370288248337029%" r="3" fill="green"/>
  <circle cx="30%" cy="93.34811529933481153%" r="3" fill="green"/>
  <circle cx="35%" cy="89.689578713968957871%" r="3" fill="green"/>
  <circle cx="40%" cy="95.121951219512195122%" r="3" fill="green"/>
  <circle cx="45%" cy="96.341463414634146341%" r="3" fill="green"/>
  <circle cx="50%" cy="93.902439024390243902%" r="3" fill="green"/>
  <circle cx="55%" cy="94.789356984478935698%" r="3" fill="green"/>
  <circle cx="60%" cy="94.013303769401330377%" r="3" fill="green"/>
  <circle cx="65%" cy="95.454545454545454545%" r="3" fill="green"/>
  <circle cx="70%" cy="95.56541019955654102%" r="3" fill="green"/>
  <circle cx="75%" cy="93.791574279379157428%" r="3" fill="green"/>
  <circle cx="80%" cy="89.578713968957871397%" r="3" fill="green"/>
  <circle cx="85%" cy="77.272727272727272727%" r="3" fill="green"/>
  <circle cx="90%" cy="85.47671840354767184%" r="3" fill="green"/>
  <circle cx="95%" cy="75.720620842572062084%" r="3" fill="green"/>
  <circle cx="100%" cy="96.230598669623059867%" r="3" fill="green"/>
  <circle cx="105%" cy="94.3458980044345898%" r="3" fill="green"/>
  <circle cx="110%" cy="99.556541019955654102%" r="3" fill="green"/>
</svg>