<svg xmlns="http://www.w3.org/2000/svg" width="100%" height="100%">
  <text x="1130" y="500" text-anchor="middle" font-family="Verdana" font-size="10">Biographie</text>
  <text x="1081.0536742416355" y="601.6380927208438" text-anchor="middle" font-family="Verdana" font-size="10">genre</text>
  <text x="971.0722785856791" y="626.7406285836371" text-anchor="middle" font-family="Verdana" font-size="10">Nature</text>
  <text x="882.8740471726856" y="556.4048860852826" text-anchor="middle" font-family="Verdana" font-size="10">Mélanges</text>
  <text x="882.8740471726856" y="443.59511391471744" text-anchor="middle" font-family="Verdana" font-size="10">Illustration</text>
  <text x="971.0722785856791" y="373.2593714163629" text-anchor="middle" font-family="Verdana" font-size="10">Index</text>
  <text x="1081.0536742416352" y="398.3619072791561" text-anchor="middle" font-family="Verdana" font-size="10">Congres</text>
  <line x1="1000" y1="500" x2="1100" y2="500" style="stroke:black"/>
  <line x1="1000" y1="500" x2="1062.3489801858734" y2="578.183148246803" style="stroke:black"/>
  <line x1="1000" y1="500" x2="977.7479066043686" y2="597.4927912181823" style="stroke:black"/>
  <line x1="1000" y1="500" x2="909.9031132097581" y2="543.3883739117558" style="stroke:black"/>
  <line x1="1000" y1="500" x2="909.9031132097581" y2="456.6116260882442" style="stroke:black"/>
  <line x1="1000" y1="500" x2="977.7479066043685" y2="402.50720878181767" style="stroke:black"/>
  <line x1="1000" y1="500" x2="1062.3489801858734" y2="421.816851753197" style="stroke:black"/>
  <path d="M 1100 500 1062.3489801858734 578.183148246803 977.7479066043686 597.4927912181823 909.9031132097581 543.3883739117558 909.9031132097581 456.6116260882442 977.7479066043685 402.50720878181767 1062.3489801858734 421.816851753197  Z" fill="transparent" stroke="black" opacity="0.5"/>
  <path d="M 1000 500 1057.7707431850938 572.4422206314057 978.0005798828957 596.385757252798 909.9031132097581 543.3883739117558 944.914267803998 473.4721095159767 998.0235334657425 491.3405343152157 1062.3489801858734 421.816851753197  Z" fill="green" stroke="black" opacity="0.5"/>
  <path d="M 1086.4528428843782 500 1053.4969213190666 567.0830175211719 980.4455081475644 585.6738266216976 925.2409032902322 536.0020835004017 910.0748802923457 456.694344755565 980.3207347181844 413.7795052656066 1051.790837303663 435.05634416686445  Z" fill="blue" stroke="black" opacity="0.5"/>
  <path d="M 1059.8524844720496 500 1054.8119179071928 568.7319710868439 979.6932371294836 588.9697413026797 920.5216748671795 538.2747441292988 920.7944837635164 461.8566337109619 985.7676439912102 437.6439740640228 1055.0394335957594 430.98273326349766  Z" fill="red" stroke="black" opacity="0.5"/>
</svg>