<svg xmlns="http://www.w3.org/2000/svg" width="100%" height="100%">
  <text x="0%" y="2%" font-family="Verdana" font-size="10">1800</text>
  <line x1="0%" y1="0%" x2="0%" y2="100%" stroke="black"/>
  <text x="5%" y="2%" font-family="Verdana" font-size="10">1805</text>
  <line x1="5%" y1="0%" x2="5%" y2="100%" stroke="black"/>
  <text x="10%" y="2%" font-family="Verdana" font-size="10">1810</text>
  <line x1="10%" y1="0%" x2="10%" y2="100%" stroke="black"/>
  <text x="15%" y="2%" font-family="Verdana" font-size="10">1815</text>
  <line x1="15%" y1="0%" x2="15%" y2="100%" stroke="black"/>
  <text x="20%" y="2%" font-family="Verdana" font-size="10">1820</text>
  <line x1="20%" y1="0%" x2="20%" y2="100%" stroke="black"/>
  <text x="25%" y="2%" font-family="Verdana" font-size="10">1825</text>
  <line x1="25%" y1="0%" x2="25%" y2="100%" stroke="black"/>
  <text x="30%" y="2%" font-family="Verdana" font-size="10">1830</text>
  <line x1="30%" y1="0%" x2="30%" y2="100%" stroke="black"/>
  <text x="35%" y="2%" font-family="Verdana" font-size="10">1835</text>
  <line x1="35%" y1="0%" x2="35%" y2="100%" stroke="black"/>
  <text x="40%" y="2%" font-family="Verdana" font-size="10">1840</text>
  <line x1="40%" y1="0%" x2="40%" y2="100%" stroke="black"/>
  <text x="45%" y="2%" font-family="Verdana" font-size="10">1845</text>
  <line x1="45%" y1="0%" x2="45%" y2="100%" stroke="black"/>
  <text x="50%" y="2%" font-family="Verdana" font-size="10">1850</text>
  <line x1="50%" y1="0%" x2="50%" y2="100%" stroke="black"/>
  <text x="55%" y="2%" font-family="Verdana" font-size="10">1855</text>
  <line x1="55%" y1="0%" x2="55%" y2="100%" stroke="black"/>
  <text x="60%" y="2%" font-family="Verdana" font-size="10">1860</text>
  <line x1="60%" y1="0%" x2="60%" y2="100%" stroke="black"/>
  <text x="65%" y="2%" font-family="Verdana" font-size="10">1865</text>
  <line x1="65%" y1="0%" x2="65%" y2="100%" stroke="black"/>
  <text x="70%" y="2%" font-family="Verdana" font-size="10">1870</text>
  <line x1="70%" y1="0%" x2="70%" y2="100%" stroke="black"/>
  <text x="75%" y="2%" font-family="Verdana" font-size="10">1875</text>
  <line x1="75%" y1="0%" x2="75%" y2="100%" stroke="black"/>
  <text x="80%" y="2%" font-family="Verdana" font-size="10">1880</text>
  <line x1="80%" y1="0%" x2="80%" y2="100%" stroke="black"/>
  <text x="85%" y="2%" font-family="Verdana" font-size="10">1885</text>
  <line x1="85%" y1="0%" x2="85%" y2="100%" stroke="black"/>
  <text x="90%" y="2%" font-family="Verdana" font-size="10">1890</text>
  <line x1="90%" y1="0%" x2="90%" y2="100%" stroke="black"/>
  <text x="95%" y="2%" font-family="Verdana" font-size="10">1895</text>
  <line x1="95%" y1="0%" x2="95%" y2="100%" stroke="black"/>
  <text x="100%" y="2%" font-family="Verdana" font-size="10">1900</text>
  <line x1="100%" y1="0%" x2="100%" y2="100%" stroke="black"/>
  <text x="2%" y="100%" font-family="Verdana" font-size="10">0</text>
  <line x1="0%" y1="100%" x2="100%" y2="100%" stroke="black"/>
  <text x="2%" y="61.538461538461538462%" font-family="Verdana" font-size="10">10</text>
  <line x1="0%" y1="61.538461538461538462%" x2="100%" y2="61.538461538461538462%" stroke="black"/>
  <text x="2%" y="23.076923076923076923%" font-family="Verdana" font-size="10">20</text>
  <line x1="0%" y1="23.076923076923076923%" x2="100%" y2="23.076923076923076923%" stroke="black"/>
  <circle cx="-61%" cy="96.153846153846153846%" r="3" fill="red"/>
  <circle cx="-56%" cy="96.153846153846153846%" r="3" fill="red"/>
  <circle cx="-46%" cy="92.307692307692307692%" r="3" fill="red"/>
  <circle cx="-45%" cy="92.307692307692307692%" r="3" fill="red"/>
  <circle cx="-37%" cy="96.153846153846153846%" r="3" fill="red"/>
  <circle cx="-35%" cy="92.307692307692307692%" r="3" fill="red"/>
  <circle cx="-27%" cy="88.461538461538461538%" r="3" fill="red"/>
  <circle cx="-26%" cy="96.153846153846153846%" r="3" fill="red"/>
  <circle cx="-20%" cy="80.769230769230769231%" r="3" fill="red"/>
  <circle cx="-19%" cy="92.307692307692307692%" r="3" fill="red"/>
  <circle cx="-18%" cy="84.615384615384615385%" r="3" fill="red"/>
  <circle cx="-14%" cy="96.153846153846153846%" r="3" fill="red"/>
  <circle cx="-9%" cy="96.153846153846153846%" r="3" fill="red"/>
  <circle cx="-7%" cy="96.153846153846153846%" r="3" fill="red"/>
  <circle cx="-3%" cy="96.153846153846153846%" r="3" fill="red"/>
  <circle cx="-2%" cy="96.153846153846153846%" r="3" fill="red"/>
  <circle cx="-1%" cy="92.307692307692307692%" r="3" fill="red"/>
  <circle cx="2%" cy="96.153846153846153846%" r="3" fill="red"/>
  <circle cx="3%" cy="84.615384615384615385%" r="3" fill="red"/>
  <circle cx="4%" cy="96.153846153846153846%" r="3" fill="red"/>
  <circle cx="6%" cy="92.307692307692307692%" r="3" fill="red"/>
  <circle cx="10%" cy="96.153846153846153846%" r="3" fill="red"/>
  <circle cx="19%" cy="96.153846153846153846%" r="3" fill="red"/>
  <circle cx="20%" cy="84.615384615384615385%" r="3" fill="red"/>
  <circle cx="22%" cy="92.307692307692307692%" r="3" fill="red"/>
  <circle cx="24%" cy="61.538461538461538462%" r="3" fill="red"/>
  <circle cx="27%" cy="96.153846153846153846%" r="3" fill="red"/>
  <circle cx="30%" cy="96.153846153846153846%" r="3" fill="red"/>
  <circle cx="31%" cy="92.307692307692307692%" r="3" fill="red"/>
  <circle cx="32%" cy="96.153846153846153846%" r="3" fill="red"/>
  <circle cx="36%" cy="92.307692307692307692%" r="3" fill="red"/>
  <circle cx="37%" cy="76.923076923076923077%" r="3" fill="red"/>
  <circle cx="40%" cy="80.769230769230769231%" r="3" fill="red"/>
  <circle cx="43%" cy="92.307692307692307692%" r="3" fill="red"/>
  <circle cx="45%" cy="84.615384615384615385%" r="3" fill="red"/>
  <circle cx="46%" cy="96.153846153846153846%" r="3" fill="red"/>
  <circle cx="47%" cy="88.461538461538461538%" r="3" fill="red"/>
  <circle cx="48%" cy="92.307692307692307692%" r="3" fill="red"/>
  <circle cx="50%" cy="96.153846153846153846%" r="3" fill="red"/>
  <circle cx="51%" cy="96.153846153846153846%" r="3" fill="red"/>
  <circle cx="52%" cy="92.307692307692307692%" r="3" fill="red"/>
  <circle cx="53%" cy="92.307692307692307692%" r="3" fill="red"/>
  <circle cx="54%" cy="84.615384615384615385%" r="3" fill="red"/>
  <circle cx="55%" cy="96.153846153846153846%" r="3" fill="red"/>
  <circle cx="56%" cy="96.153846153846153846%" r="3" fill="red"/>
  <circle cx="57%" cy="76.923076923076923077%" r="3" fill="red"/>
  <circle cx="58%" cy="96.153846153846153846%" r="3" fill="red"/>
  <circle cx="60%" cy="96.153846153846153846%" r="3" fill="red"/>
  <circle cx="61%" cy="80.769230769230769231%" r="3" fill="red"/>
  <circle cx="62%" cy="53.846153846153846154%" r="3" fill="red"/>
  <circle cx="63%" cy="96.153846153846153846%" r="3" fill="red"/>
  <circle cx="64%" cy="96.153846153846153846%" r="3" fill="red"/>
  <circle cx="65%" cy="96.153846153846153846%" r="3" fill="red"/>
  <circle cx="66%" cy="84.615384615384615385%" r="3" fill="red"/>
  <circle cx="67%" cy="88.461538461538461538%" r="3" fill="red"/>
  <circle cx="68%" cy="88.461538461538461538%" r="3" fill="red"/>
  <circle cx="69%" cy="84.615384615384615385%" r="3" fill="red"/>
  <circle cx="70%" cy="65.384615384615384615%" r="3" fill="red"/>
  <circle cx="71%" cy="73.076923076923076923%" r="3" fill="red"/>
  <circle cx="72%" cy="88.461538461538461538%" r="3" fill="red"/>
  <circle cx="73%" cy="96.153846153846153846%" r="3" fill="red"/>
  <circle cx="74%" cy="76.923076923076923077%" r="3" fill="red"/>
  <circle cx="75%" cy="73.076923076923076923%" r="3" fill="red"/>
  <circle cx="76%" cy="84.615384615384615385%" r="3" fill="red"/>
  <circle cx="77%" cy="57.692307692307692308%" r="3" fill="red"/>
  <circle cx="78%" cy="23.076923076923076923%" r="3" fill="red"/>
  <circle cx="79%" cy="57.692307692307692308%" r="3" fill="red"/>
  <circle cx="80%" cy="57.692307692307692308%" r="3" fill="red"/>
  <circle cx="81%" cy="88.461538461538461538%" r="3" fill="red"/>
  <circle cx="82%" cy="92.307692307692307692%" r="3" fill="red"/>
  <circle cx="83%" cy="88.461538461538461538%" r="3" fill="red"/>
  <circle cx="84%" cy="50%" r="3" fill="red"/>
  <circle cx="85%" cy="57.692307692307692308%" r="3" fill="red"/>
  <circle cx="86%" cy="61.538461538461538462%" r="3" fill="red"/>
  <circle cx="87%" cy="42.307692307692307692%" r="3" fill="red"/>
  <circle cx="88%" cy="26.923076923076923077%" r="3" fill="red"/>
  <circle cx="89%" cy="50%" r="3" fill="red"/>
  <circle cx="90%" cy="23.076923076923076923%" r="3" fill="red"/>
  <circle cx="91%" cy="53.846153846153846154%" r="3" fill="red"/>
  <circle cx="92%" cy="80.769230769230769231%" r="3" fill="red"/>
  <circle cx="93%" cy="65.384615384615384615%" r="3" fill="red"/>
  <circle cx="94%" cy="0%" r="3" fill="red"/>
  <circle cx="95%" cy="34.615384615384615385%" r="3" fill="red"/>
  <circle cx="96%" cy="80.769230769230769231%" r="3" fill="red"/>
  <circle cx="97%" cy="88.461538461538461538%" r="3" fill="red"/>
  <circle cx="98%" cy="80.769230769230769231%" r="3" fill="red"/>
  <circle cx="99%" cy="96.153846153846153846%" r="3" fill="red"/>
  <circle cx="100%" cy="88.461538461538461538%" r="3" fill="red"/>
  <circle cx="101%" cy="61.538461538461538462%" r="3" fill="red"/>
  <circle cx="102%" cy="61.538461538461538462%" r="3" fill="red"/>
  <circle cx="103%" cy="92.307692307692307692%" r="3" fill="red"/>
  <circle cx="104%" cy="57.692307692307692308%" r="3" fill="red"/>
  <circle cx="105%" cy="69.230769230769230769%" r="3" fill="red"/>
  <circle cx="106%" cy="92.307692307692307692%" r="3" fill="red"/>
  <circle cx="107%" cy="50%" r="3" fill="red"/>
  <circle cx="108%" cy="84.615384615384615385%" r="3" fill="red"/>
  <circle cx="109%" cy="69.230769230769230769%" r="3" fill="red"/>
  <circle cx="110%" cy="30.769230769230769231%" r="3" fill="red"/>
  <circle cx="111%" cy="80.769230769230769231%" r="3" fill="red"/>
  <circle cx="112%" cy="69.230769230769230769%" r="3" fill="red"/>
  <circle cx="113%" cy="11.538461538461538462%" r="3" fill="red"/>
  <circle cx="114%" cy="-173.076923076923076923%" r="3" fill="red"/>
  <circle cx="115%" cy="73.076923076923076923%" r="3" fill="red"/>
  <circle cx="116%" cy="80.769230769230769231%" r="3" fill="red"/>
  <circle cx="117%" cy="50%" r="3" fill="red"/>
  <circle cx="118%" cy="65.384615384615384615%" r="3" fill="red"/>
  <circle cx="119%" cy="46.153846153846153846%" r="3" fill="red"/>
  <circle cx="120%" cy="50%" r="3" fill="red"/>
  <circle cx="121%" cy="46.153846153846153846%" r="3" fill="red"/>
  <circle cx="122%" cy="69.230769230769230769%" r="3" fill="red"/>
  <circle cx="123%" cy="88.461538461538461538%" r="3" fill="red"/>
  <circle cx="124%" cy="42.307692307692307692%" r="3" fill="red"/>
  <circle cx="125%" cy="38.461538461538461538%" r="3" fill="red"/>
  <circle cx="126%" cy="11.538461538461538462%" r="3" fill="red"/>
  <circle cx="127%" cy="57.692307692307692308%" r="3" fill="red"/>
  <circle cx="128%" cy="69.230769230769230769%" r="3" fill="red"/>
  <circle cx="129%" cy="84.615384615384615385%" r="3" fill="red"/>
  <circle cx="130%" cy="61.538461538461538462%" r="3" fill="red"/>
  <circle cx="131%" cy="-15.384615384615384615%" r="3" fill="red"/>
  <circle cx="132%" cy="46.153846153846153846%" r="3" fill="red"/>
  <circle cx="133%" cy="-130.769230769230769231%" r="3" fill="red"/>
  <circle cx="134%" cy="53.846153846153846154%" r="3" fill="red"/>
  <circle cx="135%" cy="73.076923076923076923%" r="3" fill="red"/>
  <circle cx="136%" cy="65.384615384615384615%" r="3" fill="red"/>
  <circle cx="137%" cy="92.307692307692307692%" r="3" fill="red"/>
  <circle cx="138%" cy="84.615384615384615385%" r="3" fill="red"/>
  <circle cx="139%" cy="19.230769230769230769%" r="3" fill="red"/>
  <circle cx="140%" cy="-311.538461538461538462%" r="3" fill="red"/>
  <circle cx="141%" cy="-142.307692307692307692%" r="3" fill="red"/>
  <circle cx="142%" cy="-246.153846153846153846%" r="3" fill="red"/>
  <circle cx="143%" cy="61.538461538461538462%" r="3" fill="red"/>
  <circle cx="144%" cy="-7.692307692307692308%" r="3" fill="red"/>
  <circle cx="145%" cy="80.769230769230769231%" r="3" fill="red"/>
  <circle cx="146%" cy="-7.692307692307692308%" r="3" fill="red"/>
  <circle cx="147%" cy="-111.538461538461538462%" r="3" fill="red"/>
  <circle cx="148%" cy="46.153846153846153846%" r="3" fill="red"/>
  <circle cx="149%" cy="88.461538461538461538%" r="3" fill="red"/>
  <circle cx="150%" cy="73.076923076923076923%" r="3" fill="red"/>
  <circle cx="151%" cy="88.461538461538461538%" r="3" fill="red"/>
  <circle cx="152%" cy="92.307692307692307692%" r="3" fill="red"/>
  <circle cx="153%" cy="80.769230769230769231%" r="3" fill="red"/>
  <circle cx="154%" cy="23.076923076923076923%" r="3" fill="red"/>
  <circle cx="155%" cy="57.692307692307692308%" r="3" fill="red"/>
  <circle cx="156%" cy="34.615384615384615385%" r="3" fill="red"/>
  <circle cx="157%" cy="57.692307692307692308%" r="3" fill="red"/>
  <circle cx="158%" cy="65.384615384615384615%" r="3" fill="red"/>
  <circle cx="159%" cy="73.076923076923076923%" r="3" fill="red"/>
  <circle cx="160%" cy="88.461538461538461538%" r="3" fill="red"/>
  <circle cx="161%" cy="76.923076923076923077%" r="3" fill="red"/>
  <circle cx="162%" cy="76.923076923076923077%" r="3" fill="red"/>
  <circle cx="163%" cy="65.384615384615384615%" r="3" fill="red"/>
  <circle cx="164%" cy="96.153846153846153846%" r="3" fill="red"/>
  <circle cx="165%" cy="76.923076923076923077%" r="3" fill="red"/>
  <circle cx="166%" cy="57.692307692307692308%" r="3" fill="red"/>
  <circle cx="167%" cy="61.538461538461538462%" r="3" fill="red"/>
  <circle cx="168%" cy="88.461538461538461538%" r="3" fill="red"/>
  <circle cx="169%" cy="73.076923076923076923%" r="3" fill="red"/>
  <circle cx="170%" cy="0%" r="3" fill="red"/>
  <circle cx="171%" cy="46.153846153846153846%" r="3" fill="red"/>
  <circle cx="172%" cy="-38.461538461538461538%" r="3" fill="red"/>
  <circle cx="173%" cy="26.923076923076923077%" r="3" fill="red"/>
  <circle cx="174%" cy="38.461538461538461538%" r="3" fill="red"/>
  <circle cx="175%" cy="-3.846153846153846154%" r="3" fill="red"/>
  <circle cx="176%" cy="30.769230769230769231%" r="3" fill="red"/>
  <circle cx="177%" cy="-19.230769230769230769%" r="3" fill="red"/>
  <circle cx="178%" cy="34.615384615384615385%" r="3" fill="red"/>
  <circle cx="179%" cy="23.076923076923076923%" r="3" fill="red"/>
  <circle cx="180%" cy="-26.923076923076923077%" r="3" fill="red"/>
  <circle cx="181%" cy="-19.230769230769230769%" r="3" fill="red"/>
  <circle cx="182%" cy="30.769230769230769231%" r="3" fill="red"/>
  <circle cx="183%" cy="-3.846153846153846154%" r="3" fill="red"/>
  <circle cx="184%" cy="-3.846153846153846154%" r="3" fill="red"/>
  <circle cx="185%" cy="-76.923076923076923077%" r="3" fill="red"/>
  <circle cx="186%" cy="-250%" r="3" fill="red"/>
  <circle cx="187%" cy="-423.076923076923076923%" r="3" fill="red"/>
  <circle cx="188%" cy="-538.461538461538461538%" r="3" fill="red"/>
  <circle cx="189%" cy="-707.692307692307692308%" r="3" fill="red"/>
  <circle cx="190%" cy="-530.769230769230769231%" r="3" fill="red"/>
  <circle cx="191%" cy="-196.153846153846153846%" r="3" fill="red"/>
  <circle cx="192%" cy="-526.923076923076923077%" r="3" fill="red"/>
  <circle cx="193%" cy="-1107.692307692307692308%" r="3" fill="red"/>
  <circle cx="194%" cy="-1207.692307692307692308%" r="3" fill="red"/>
  <circle cx="195%" cy="-1530.769230769230769231%" r="3" fill="red"/>
  <circle cx="196%" cy="-2200%" r="3" fill="red"/>
  <circle cx="197%" cy="-13280.769230769230769231%" r="3" fill="red"/>
  <circle cx="198%" cy="-11007.692307692307692308%" r="3" fill="red"/>
  <circle cx="199%" cy="-446.153846153846153846%" r="3" fill="red"/>
  <circle cx="200%" cy="-557.692307692307692308%" r="3" fill="red"/>
  <circle cx="201%" cy="-600%" r="3" fill="red"/>
  <circle cx="202%" cy="-696.153846153846153846%" r="3" fill="red"/>
  <circle cx="203%" cy="-803.846153846153846154%" r="3" fill="red"/>
  <circle cx="204%" cy="-1100%" r="3" fill="red"/>
  <circle cx="205%" cy="-1138.461538461538461538%" r="3" fill="red"/>
  <circle cx="206%" cy="-1369.230769230769230769%" r="3" fill="red"/>
  <circle cx="207%" cy="-1676.923076923076923077%" r="3" fill="red"/>
  <circle cx="208%" cy="-615.384615384615384615%" r="3" fill="red"/>
  <circle cx="209%" cy="-496.153846153846153846%" r="3" fill="red"/>
  <circle cx="210%" cy="-538.461538461538461538%" r="3" fill="red"/>
  <circle cx="211%" cy="-465.384615384615384615%" r="3" fill="red"/>
  <circle cx="212%" cy="-519.230769230769230769%" r="3" fill="red"/>
  <circle cx="213%" cy="-292.307692307692307692%" r="3" fill="red"/>
  <circle cx="214%" cy="-869.230769230769230769%" r="3" fill="red"/>
  <circle cx="215%" cy="-846.153846153846153846%" r="3" fill="red"/>
  <circle cx="216%" cy="-892.307692307692307692%" r="3" fill="red"/>
  <circle cx="217%" cy="-2165.384615384615384615%" r="3" fill="red"/>
  <circle cx="218%" cy="-2746.153846153846153846%" r="3" fill="red"/>
  <circle cx="219%" cy="-3369.230769230769230769%" r="3" fill="red"/>
  <circle cx="220%" cy="-1961.538461538461538462%" r="3" fill="red"/>
  <circle cx="221%" cy="-3080.769230769230769231%" r="3" fill="red"/>
  <circle cx="222%" cy="-357.692307692307692308%" r="3" fill="red"/>
  <circle cx="-61%" cy="96.153846153846153846%" r="3" fill="blue"/>
  <circle cx="-46%" cy="92.307692307692307692%" r="3" fill="blue"/>
  <circle cx="-37%" cy="96.153846153846153846%" r="3" fill="blue"/>
  <circle cx="-35%" cy="92.307692307692307692%" r="3" fill="blue"/>
  <circle cx="-27%" cy="88.461538461538461538%" r="3" fill="blue"/>
  <circle cx="-20%" cy="80.769230769230769231%" r="3" fill="blue"/>
  <circle cx="-19%" cy="92.307692307692307692%" r="3" fill="blue"/>
  <circle cx="-18%" cy="84.615384615384615385%" r="3" fill="blue"/>
  <circle cx="-9%" cy="96.153846153846153846%" r="3" fill="blue"/>
  <circle cx="-2%" cy="96.153846153846153846%" r="3" fill="blue"/>
  <circle cx="-1%" cy="96.153846153846153846%" r="3" fill="blue"/>
  <circle cx="2%" cy="96.153846153846153846%" r="3" fill="blue"/>
  <circle cx="3%" cy="84.615384615384615385%" r="3" fill="blue"/>
  <circle cx="6%" cy="92.307692307692307692%" r="3" fill="blue"/>
  <circle cx="10%" cy="96.153846153846153846%" r="3" fill="blue"/>
  <circle cx="24%" cy="61.538461538461538462%" r="3" fill="blue"/>
  <circle cx="37%" cy="92.307692307692307692%" r="3" fill="blue"/>
  <circle cx="43%" cy="92.307692307692307692%" r="3" fill="blue"/>
  <circle cx="45%" cy="96.153846153846153846%" r="3" fill="blue"/>
  <circle cx="47%" cy="88.461538461538461538%" r="3" fill="blue"/>
  <circle cx="48%" cy="96.153846153846153846%" r="3" fill="blue"/>
  <circle cx="54%" cy="96.153846153846153846%" r="3" fill="blue"/>
  <circle cx="56%" cy="96.153846153846153846%" r="3" fill="blue"/>
  <circle cx="57%" cy="76.923076923076923077%" r="3" fill="blue"/>
  <circle cx="64%" cy="96.153846153846153846%" r="3" fill="blue"/>
  <circle cx="66%" cy="96.153846153846153846%" r="3" fill="blue"/>
  <circle cx="67%" cy="92.307692307692307692%" r="3" fill="blue"/>
  <circle cx="68%" cy="96.153846153846153846%" r="3" fill="blue"/>
  <circle cx="70%" cy="96.153846153846153846%" r="3" fill="blue"/>
  <circle cx="71%" cy="88.461538461538461538%" r="3" fill="blue"/>
  <circle cx="74%" cy="80.769230769230769231%" r="3" fill="blue"/>
  <circle cx="75%" cy="84.615384615384615385%" r="3" fill="blue"/>
  <circle cx="76%" cy="96.153846153846153846%" r="3" fill="blue"/>
  <circle cx="77%" cy="88.461538461538461538%" r="3" fill="blue"/>
  <circle cx="78%" cy="69.230769230769230769%" r="3" fill="blue"/>
  <circle cx="79%" cy="69.230769230769230769%" r="3" fill="blue"/>
  <circle cx="80%" cy="88.461538461538461538%" r="3" fill="blue"/>
  <circle cx="81%" cy="96.153846153846153846%" r="3" fill="blue"/>
  <circle cx="82%" cy="96.153846153846153846%" r="3" fill="blue"/>
  <circle cx="84%" cy="92.307692307692307692%" r="3" fill="blue"/>
  <circle cx="85%" cy="92.307692307692307692%" r="3" fill="blue"/>
  <circle cx="86%" cy="96.153846153846153846%" r="3" fill="blue"/>
  <circle cx="87%" cy="88.461538461538461538%" r="3" fill="blue"/>
  <circle cx="88%" cy="73.076923076923076923%" r="3" fill="blue"/>
  <circle cx="89%" cy="92.307692307692307692%" r="3" fill="blue"/>
  <circle cx="90%" cy="73.076923076923076923%" r="3" fill="blue"/>
  <circle cx="91%" cy="61.538461538461538462%" r="3" fill="blue"/>
  <circle cx="92%" cy="84.615384615384615385%" r="3" fill="blue"/>
  <circle cx="93%" cy="92.307692307692307692%" r="3" fill="blue"/>
  <circle cx="94%" cy="38.461538461538461538%" r="3" fill="blue"/>
  <circle cx="95%" cy="57.692307692307692308%" r="3" fill="blue"/>
  <circle cx="96%" cy="88.461538461538461538%" r="3" fill="blue"/>
  <circle cx="97%" cy="96.153846153846153846%" r="3" fill="blue"/>
  <circle cx="98%" cy="84.615384615384615385%" r="3" fill="blue"/>
  <circle cx="99%" cy="96.153846153846153846%" r="3" fill="blue"/>
  <circle cx="101%" cy="88.461538461538461538%" r="3" fill="blue"/>
  <circle cx="102%" cy="96.153846153846153846%" r="3" fill="blue"/>
  <circle cx="104%" cy="61.538461538461538462%" r="3" fill="blue"/>
  <circle cx="105%" cy="73.076923076923076923%" r="3" fill="blue"/>
  <circle cx="106%" cy="92.307692307692307692%" r="3" fill="blue"/>
  <circle cx="107%" cy="50%" r="3" fill="blue"/>
  <circle cx="109%" cy="84.615384615384615385%" r="3" fill="blue"/>
  <circle cx="110%" cy="84.615384615384615385%" r="3" fill="blue"/>
  <circle cx="111%" cy="88.461538461538461538%" r="3" fill="blue"/>
  <circle cx="112%" cy="80.769230769230769231%" r="3" fill="blue"/>
  <circle cx="113%" cy="38.461538461538461538%" r="3" fill="blue"/>
  <circle cx="114%" cy="-161.538461538461538462%" r="3" fill="blue"/>
  <circle cx="115%" cy="76.923076923076923077%" r="3" fill="blue"/>
  <circle cx="116%" cy="80.769230769230769231%" r="3" fill="blue"/>
  <circle cx="117%" cy="53.846153846153846154%" r="3" fill="blue"/>
  <circle cx="118%" cy="73.076923076923076923%" r="3" fill="blue"/>
  <circle cx="119%" cy="53.846153846153846154%" r="3" fill="blue"/>
  <circle cx="120%" cy="61.538461538461538462%" r="3" fill="blue"/>
  <circle cx="121%" cy="57.692307692307692308%" r="3" fill="blue"/>
  <circle cx="122%" cy="88.461538461538461538%" r="3" fill="blue"/>
  <circle cx="123%" cy="92.307692307692307692%" r="3" fill="blue"/>
  <circle cx="124%" cy="69.230769230769230769%" r="3" fill="blue"/>
  <circle cx="125%" cy="38.461538461538461538%" r="3" fill="blue"/>
  <circle cx="126%" cy="23.076923076923076923%" r="3" fill="blue"/>
  <circle cx="127%" cy="65.384615384615384615%" r="3" fill="blue"/>
  <circle cx="128%" cy="76.923076923076923077%" r="3" fill="blue"/>
  <circle cx="129%" cy="88.461538461538461538%" r="3" fill="blue"/>
  <circle cx="130%" cy="76.923076923076923077%" r="3" fill="blue"/>
  <circle cx="131%" cy="-15.384615384615384615%" r="3" fill="blue"/>
  <circle cx="132%" cy="53.846153846153846154%" r="3" fill="blue"/>
  <circle cx="133%" cy="-107.692307692307692308%" r="3" fill="blue"/>
  <circle cx="134%" cy="88.461538461538461538%" r="3" fill="blue"/>
  <circle cx="135%" cy="92.307692307692307692%" r="3" fill="blue"/>
  <circle cx="137%" cy="96.153846153846153846%" r="3" fill="blue"/>
  <circle cx="139%" cy="26.923076923076923077%" r="3" fill="blue"/>
  <circle cx="140%" cy="-311.538461538461538462%" r="3" fill="blue"/>
  <circle cx="141%" cy="-134.615384615384615385%" r="3" fill="blue"/>
  <circle cx="142%" cy="-246.153846153846153846%" r="3" fill="blue"/>
  <circle cx="143%" cy="88.461538461538461538%" r="3" fill="blue"/>
  <circle cx="144%" cy="-7.692307692307692308%" r="3" fill="blue"/>
  <circle cx="145%" cy="80.769230769230769231%" r="3" fill="blue"/>
  <circle cx="146%" cy="-7.692307692307692308%" r="3" fill="blue"/>
  <circle cx="147%" cy="-111.538461538461538462%" r="3" fill="blue"/>
  <circle cx="148%" cy="50%" r="3" fill="blue"/>
  <circle cx="149%" cy="92.307692307692307692%" r="3" fill="blue"/>
  <circle cx="150%" cy="92.307692307692307692%" r="3" fill="blue"/>
  <circle cx="153%" cy="88.461538461538461538%" r="3" fill="blue"/>
  <circle cx="154%" cy="46.153846153846153846%" r="3" fill="blue"/>
  <circle cx="155%" cy="76.923076923076923077%" r="3" fill="blue"/>
  <circle cx="156%" cy="96.153846153846153846%" r="3" fill="blue"/>
  <circle cx="158%" cy="96.153846153846153846%" r="3" fill="blue"/>
  <circle cx="161%" cy="96.153846153846153846%" r="3" fill="blue"/>
  <circle cx="163%" cy="92.307692307692307692%" r="3" fill="blue"/>
  <circle cx="165%" cy="96.153846153846153846%" r="3" fill="blue"/>
  <circle cx="166%" cy="88.461538461538461538%" r="3" fill="blue"/>
  <circle cx="167%" cy="92.307692307692307692%" r="3" fill="blue"/>
  <circle cx="168%" cy="96.153846153846153846%" r="3" fill="blue"/>
  <circle cx="169%" cy="96.153846153846153846%" r="3" fill="blue"/>
  <circle cx="170%" cy="96.153846153846153846%" r="3" fill="blue"/>
  <circle cx="171%" cy="88.461538461538461538%" r="3" fill="blue"/>
  <circle cx="172%" cy="92.307692307692307692%" r="3" fill="blue"/>
  <circle cx="173%" cy="96.153846153846153846%" r="3" fill="blue"/>
  <circle cx="174%" cy="96.153846153846153846%" r="3" fill="blue"/>
  <circle cx="175%" cy="84.615384615384615385%" r="3" fill="blue"/>
  <circle cx="178%" cy="92.307692307692307692%" r="3" fill="blue"/>
  <circle cx="180%" cy="84.615384615384615385%" r="3" fill="blue"/>
  <circle cx="181%" cy="88.461538461538461538%" r="3" fill="blue"/>
  <circle cx="183%" cy="96.153846153846153846%" r="3" fill="blue"/>
  <circle cx="184%" cy="84.615384615384615385%" r="3" fill="blue"/>
  <circle cx="185%" cy="88.461538461538461538%" r="3" fill="blue"/>
  <circle cx="186%" cy="96.153846153846153846%" r="3" fill="blue"/>
  <circle cx="187%" cy="73.076923076923076923%" r="3" fill="blue"/>
  <circle cx="188%" cy="92.307692307692307692%" r="3" fill="blue"/>
  <circle cx="189%" cy="80.769230769230769231%" r="3" fill="blue"/>
  <circle cx="190%" cy="84.615384615384615385%" r="3" fill="blue"/>
  <circle cx="191%" cy="96.153846153846153846%" r="3" fill="blue"/>
  <circle cx="192%" cy="-261.538461538461538462%" r="3" fill="blue"/>
  <circle cx="193%" cy="-523.076923076923076923%" r="3" fill="blue"/>
  <circle cx="194%" cy="-623.076923076923076923%" r="3" fill="blue"/>
  <circle cx="195%" cy="-1176.923076923076923077%" r="3" fill="blue"/>
  <circle cx="196%" cy="-1876.923076923076923077%" r="3" fill="blue"/>
  <circle cx="197%" cy="-12961.538461538461538462%" r="3" fill="blue"/>
  <circle cx="198%" cy="-10730.769230769230769231%" r="3" fill="blue"/>
  <circle cx="199%" cy="88.461538461538461538%" r="3" fill="blue"/>
  <circle cx="200%" cy="53.846153846153846154%" r="3" fill="blue"/>
  <circle cx="201%" cy="73.076923076923076923%" r="3" fill="blue"/>
  <circle cx="202%" cy="-234.615384615384615385%" r="3" fill="blue"/>
  <circle cx="203%" cy="-353.846153846153846154%" r="3" fill="blue"/>
  <circle cx="204%" cy="-603.846153846153846154%" r="3" fill="blue"/>
  <circle cx="205%" cy="-530.769230769230769231%" r="3" fill="blue"/>
  <circle cx="206%" cy="-1138.461538461538461538%" r="3" fill="blue"/>
  <circle cx="207%" cy="-1319.230769230769230769%" r="3" fill="blue"/>
  <circle cx="208%" cy="-446.153846153846153846%" r="3" fill="blue"/>
  <circle cx="209%" cy="-369.230769230769230769%" r="3" fill="blue"/>
  <circle cx="210%" cy="-326.923076923076923077%" r="3" fill="blue"/>
  <circle cx="211%" cy="-284.615384615384615385%" r="3" fill="blue"/>
  <circle cx="212%" cy="-311.538461538461538462%" r="3" fill="blue"/>
  <circle cx="213%" cy="-134.615384615384615385%" r="3" fill="blue"/>
  <circle cx="214%" cy="-715.384615384615384615%" r="3" fill="blue"/>
  <circle cx="215%" cy="-630.769230769230769231%" r="3" fill="blue"/>
  <circle cx="216%" cy="-530.769230769230769231%" r="3" fill="blue"/>
  <circle cx="217%" cy="-1376.923076923076923077%" r="3" fill="blue"/>
  <circle cx="218%" cy="-2242.307692307692307692%" r="3" fill="blue"/>
  <circle cx="219%" cy="-2526.923076923076923077%" r="3" fill="blue"/>
  <circle cx="220%" cy="-1830.769230769230769231%" r="3" fill="blue"/>
  <circle cx="221%" cy="-2884.615384615384615385%" r="3" fill="blue"/>
  <circle cx="222%" cy="-342.307692307692307692%" r="3" fill="blue"/>
  <circle cx="-56%" cy="96.153846153846153846%" r="3" fill="green"/>
  <circle cx="-45%" cy="92.307692307692307692%" r="3" fill="green"/>
  <circle cx="-26%" cy="96.153846153846153846%" r="3" fill="green"/>
  <circle cx="-14%" cy="96.153846153846153846%" r="3" fill="green"/>
  <circle cx="-7%" cy="96.153846153846153846%" r="3" fill="green"/>
  <circle cx="-3%" cy="96.153846153846153846%" r="3" fill="green"/>
  <circle cx="-1%" cy="96.153846153846153846%" r="3" fill="green"/>
  <circle cx="4%" cy="96.153846153846153846%" r="3" fill="green"/>
  <circle cx="19%" cy="96.153846153846153846%" r="3" fill="green"/>
  <circle cx="20%" cy="84.615384615384615385%" r="3" fill="green"/>
  <circle cx="22%" cy="92.307692307692307692%" r="3" fill="green"/>
  <circle cx="27%" cy="96.153846153846153846%" r="3" fill="green"/>
  <circle cx="30%" cy="96.153846153846153846%" r="3" fill="green"/>
  <circle cx="31%" cy="92.307692307692307692%" r="3" fill="green"/>
  <circle cx="32%" cy="96.153846153846153846%" r="3" fill="green"/>
  <circle cx="36%" cy="92.307692307692307692%" r="3" fill="green"/>
  <circle cx="37%" cy="84.615384615384615385%" r="3" fill="green"/>
  <circle cx="40%" cy="80.769230769230769231%" r="3" fill="green"/>
  <circle cx="45%" cy="88.461538461538461538%" r="3" fill="green"/>
  <circle cx="46%" cy="96.153846153846153846%" r="3" fill="green"/>
  <circle cx="48%" cy="96.153846153846153846%" r="3" fill="green"/>
  <circle cx="50%" cy="96.153846153846153846%" r="3" fill="green"/>
  <circle cx="51%" cy="96.153846153846153846%" r="3" fill="green"/>
  <circle cx="52%" cy="92.307692307692307692%" r="3" fill="green"/>
  <circle cx="53%" cy="92.307692307692307692%" r="3" fill="green"/>
  <circle cx="54%" cy="88.461538461538461538%" r="3" fill="green"/>
  <circle cx="55%" cy="96.153846153846153846%" r="3" fill="green"/>
  <circle cx="58%" cy="96.153846153846153846%" r="3" fill="green"/>
  <circle cx="60%" cy="96.153846153846153846%" r="3" fill="green"/>
  <circle cx="61%" cy="80.769230769230769231%" r="3" fill="green"/>
  <circle cx="62%" cy="53.846153846153846154%" r="3" fill="green"/>
  <circle cx="63%" cy="96.153846153846153846%" r="3" fill="green"/>
  <circle cx="65%" cy="96.153846153846153846%" r="3" fill="green"/>
  <circle cx="66%" cy="88.461538461538461538%" r="3" fill="green"/>
  <circle cx="67%" cy="96.153846153846153846%" r="3" fill="green"/>
  <circle cx="68%" cy="92.307692307692307692%" r="3" fill="green"/>
  <circle cx="69%" cy="84.615384615384615385%" r="3" fill="green"/>
  <circle cx="70%" cy="69.230769230769230769%" r="3" fill="green"/>
  <circle cx="71%" cy="84.615384615384615385%" r="3" fill="green"/>
  <circle cx="72%" cy="88.461538461538461538%" r="3" fill="green"/>
  <circle cx="73%" cy="96.153846153846153846%" r="3" fill="green"/>
  <circle cx="74%" cy="96.153846153846153846%" r="3" fill="green"/>
  <circle cx="75%" cy="88.461538461538461538%" r="3" fill="green"/>
  <circle cx="76%" cy="88.461538461538461538%" r="3" fill="green"/>
  <circle cx="77%" cy="69.230769230769230769%" r="3" fill="green"/>
  <circle cx="78%" cy="53.846153846153846154%" r="3" fill="green"/>
  <circle cx="79%" cy="88.461538461538461538%" r="3" fill="green"/>
  <circle cx="80%" cy="69.230769230769230769%" r="3" fill="green"/>
  <circle cx="81%" cy="92.307692307692307692%" r="3" fill="green"/>
  <circle cx="82%" cy="96.153846153846153846%" r="3" fill="green"/>
  <circle cx="83%" cy="88.461538461538461538%" r="3" fill="green"/>
  <circle cx="84%" cy="57.692307692307692308%" r="3" fill="green"/>
  <circle cx="85%" cy="65.384615384615384615%" r="3" fill="green"/>
  <circle cx="86%" cy="65.384615384615384615%" r="3" fill="green"/>
  <circle cx="87%" cy="53.846153846153846154%" r="3" fill="green"/>
  <circle cx="88%" cy="53.846153846153846154%" r="3" fill="green"/>
  <circle cx="89%" cy="57.692307692307692308%" r="3" fill="green"/>
  <circle cx="90%" cy="50%" r="3" fill="green"/>
  <circle cx="91%" cy="92.307692307692307692%" r="3" fill="green"/>
  <circle cx="92%" cy="96.153846153846153846%" r="3" fill="green"/>
  <circle cx="93%" cy="73.076923076923076923%" r="3" fill="green"/>
  <circle cx="94%" cy="61.538461538461538462%" r="3" fill="green"/>
  <circle cx="95%" cy="76.923076923076923077%" r="3" fill="green"/>
  <circle cx="96%" cy="92.307692307692307692%" r="3" fill="green"/>
  <circle cx="97%" cy="92.307692307692307692%" r="3" fill="green"/>
  <circle cx="98%" cy="96.153846153846153846%" r="3" fill="green"/>
  <circle cx="100%" cy="88.461538461538461538%" r="3" fill="green"/>
  <circle cx="101%" cy="73.076923076923076923%" r="3" fill="green"/>
  <circle cx="102%" cy="65.384615384615384615%" r="3" fill="green"/>
  <circle cx="103%" cy="92.307692307692307692%" r="3" fill="green"/>
  <circle cx="104%" cy="96.153846153846153846%" r="3" fill="green"/>
  <circle cx="105%" cy="96.153846153846153846%" r="3" fill="green"/>
  <circle cx="108%" cy="84.615384615384615385%" r="3" fill="green"/>
  <circle cx="109%" cy="84.615384615384615385%" r="3" fill="green"/>
  <circle cx="110%" cy="46.153846153846153846%" r="3" fill="green"/>
  <circle cx="111%" cy="92.307692307692307692%" r="3" fill="green"/>
  <circle cx="112%" cy="88.461538461538461538%" r="3" fill="green"/>
  <circle cx="113%" cy="73.076923076923076923%" r="3" fill="green"/>
  <circle cx="114%" cy="88.461538461538461538%" r="3" fill="green"/>
  <circle cx="115%" cy="96.153846153846153846%" r="3" fill="green"/>
  <circle cx="117%" cy="96.153846153846153846%" r="3" fill="green"/>
  <circle cx="118%" cy="92.307692307692307692%" r="3" fill="green"/>
  <circle cx="119%" cy="92.307692307692307692%" r="3" fill="green"/>
  <circle cx="120%" cy="88.461538461538461538%" r="3" fill="green"/>
  <circle cx="121%" cy="88.461538461538461538%" r="3" fill="green"/>
  <circle cx="122%" cy="80.769230769230769231%" r="3" fill="green"/>
  <circle cx="123%" cy="96.153846153846153846%" r="3" fill="green"/>
  <circle cx="124%" cy="73.076923076923076923%" r="3" fill="green"/>
  <circle cx="126%" cy="88.461538461538461538%" r="3" fill="green"/>
  <circle cx="127%" cy="92.307692307692307692%" r="3" fill="green"/>
  <circle cx="128%" cy="92.307692307692307692%" r="3" fill="green"/>
  <circle cx="129%" cy="96.153846153846153846%" r="3" fill="green"/>
  <circle cx="130%" cy="84.615384615384615385%" r="3" fill="green"/>
  <circle cx="132%" cy="92.307692307692307692%" r="3" fill="green"/>
  <circle cx="133%" cy="76.923076923076923077%" r="3" fill="green"/>
  <circle cx="134%" cy="65.384615384615384615%" r="3" fill="green"/>
  <circle cx="135%" cy="80.769230769230769231%" r="3" fill="green"/>
  <circle cx="136%" cy="65.384615384615384615%" r="3" fill="green"/>
  <circle cx="137%" cy="96.153846153846153846%" r="3" fill="green"/>
  <circle cx="138%" cy="84.615384615384615385%" r="3" fill="green"/>
  <circle cx="139%" cy="92.307692307692307692%" r="3" fill="green"/>
  <circle cx="141%" cy="92.307692307692307692%" r="3" fill="green"/>
  <circle cx="143%" cy="73.076923076923076923%" r="3" fill="green"/>
  <circle cx="148%" cy="96.153846153846153846%" r="3" fill="green"/>
  <circle cx="149%" cy="96.153846153846153846%" r="3" fill="green"/>
  <circle cx="150%" cy="80.769230769230769231%" r="3" fill="green"/>
  <circle cx="151%" cy="88.461538461538461538%" r="3" fill="green"/>
  <circle cx="152%" cy="92.307692307692307692%" r="3" fill="green"/>
  <circle cx="153%" cy="92.307692307692307692%" r="3" fill="green"/>
  <circle cx="154%" cy="76.923076923076923077%" r="3" fill="green"/>
  <circle cx="155%" cy="80.769230769230769231%" r="3" fill="green"/>
  <circle cx="156%" cy="38.461538461538461538%" r="3" fill="green"/>
  <circle cx="157%" cy="57.692307692307692308%" r="3" fill="green"/>
  <circle cx="158%" cy="69.230769230769230769%" r="3" fill="green"/>
  <circle cx="159%" cy="73.076923076923076923%" r="3" fill="green"/>
  <circle cx="160%" cy="88.461538461538461538%" r="3" fill="green"/>
  <circle cx="161%" cy="80.769230769230769231%" r="3" fill="green"/>
  <circle cx="162%" cy="76.923076923076923077%" r="3" fill="green"/>
  <circle cx="163%" cy="73.076923076923076923%" r="3" fill="green"/>
  <circle cx="164%" cy="96.153846153846153846%" r="3" fill="green"/>
  <circle cx="165%" cy="80.769230769230769231%" r="3" fill="green"/>
  <circle cx="166%" cy="69.230769230769230769%" r="3" fill="green"/>
  <circle cx="167%" cy="69.230769230769230769%" r="3" fill="green"/>
  <circle cx="168%" cy="92.307692307692307692%" r="3" fill="green"/>
  <circle cx="169%" cy="76.923076923076923077%" r="3" fill="green"/>
  <circle cx="170%" cy="3.846153846153846154%" r="3" fill="green"/>
  <circle cx="171%" cy="57.692307692307692308%" r="3" fill="green"/>
  <circle cx="172%" cy="-30.769230769230769231%" r="3" fill="green"/>
  <circle cx="173%" cy="30.769230769230769231%" r="3" fill="green"/>
  <circle cx="174%" cy="42.307692307692307692%" r="3" fill="green"/>
  <circle cx="175%" cy="11.538461538461538462%" r="3" fill="green"/>
  <circle cx="176%" cy="30.769230769230769231%" r="3" fill="green"/>
  <circle cx="177%" cy="-19.230769230769230769%" r="3" fill="green"/>
  <circle cx="178%" cy="42.307692307692307692%" r="3" fill="green"/>
  <circle cx="179%" cy="23.076923076923076923%" r="3" fill="green"/>
  <circle cx="180%" cy="-11.538461538461538462%" r="3" fill="green"/>
  <circle cx="181%" cy="-7.692307692307692308%" r="3" fill="green"/>
  <circle cx="182%" cy="30.769230769230769231%" r="3" fill="green"/>
  <circle cx="183%" cy="0%" r="3" fill="green"/>
  <circle cx="184%" cy="11.538461538461538462%" r="3" fill="green"/>
  <circle cx="185%" cy="-65.384615384615384615%" r="3" fill="green"/>
  <circle cx="186%" cy="-246.153846153846153846%" r="3" fill="green"/>
  <circle cx="187%" cy="-396.153846153846153846%" r="3" fill="green"/>
  <circle cx="188%" cy="-530.769230769230769231%" r="3" fill="green"/>
  <circle cx="189%" cy="-688.461538461538461538%" r="3" fill="green"/>
  <circle cx="190%" cy="-515.384615384615384615%" r="3" fill="green"/>
  <circle cx="191%" cy="-192.307692307692307692%" r="3" fill="green"/>
  <circle cx="192%" cy="-165.384615384615384615%" r="3" fill="green"/>
  <circle cx="193%" cy="-484.615384615384615385%" r="3" fill="green"/>
  <circle cx="194%" cy="-484.615384615384615385%" r="3" fill="green"/>
  <circle cx="195%" cy="-253.846153846153846154%" r="3" fill="green"/>
  <circle cx="196%" cy="-223.076923076923076923%" r="3" fill="green"/>
  <circle cx="197%" cy="-219.230769230769230769%" r="3" fill="green"/>
  <circle cx="198%" cy="-176.923076923076923077%" r="3" fill="green"/>
  <circle cx="199%" cy="-434.615384615384615385%" r="3" fill="green"/>
  <circle cx="200%" cy="-511.538461538461538462%" r="3" fill="green"/>
  <circle cx="201%" cy="-573.076923076923076923%" r="3" fill="green"/>
  <circle cx="202%" cy="-361.538461538461538462%" r="3" fill="green"/>
  <circle cx="203%" cy="-350%" r="3" fill="green"/>
  <circle cx="204%" cy="-396.153846153846153846%" r="3" fill="green"/>
  <circle cx="205%" cy="-507.692307692307692308%" r="3" fill="green"/>
  <circle cx="206%" cy="-130.769230769230769231%" r="3" fill="green"/>
  <circle cx="207%" cy="-257.692307692307692308%" r="3" fill="green"/>
  <circle cx="208%" cy="-69.230769230769230769%" r="3" fill="green"/>
  <circle cx="209%" cy="-26.923076923076923077%" r="3" fill="green"/>
  <circle cx="210%" cy="-111.538461538461538462%" r="3" fill="green"/>
  <circle cx="211%" cy="-80.769230769230769231%" r="3" fill="green"/>
  <circle cx="212%" cy="-107.692307692307692308%" r="3" fill="green"/>
  <circle cx="213%" cy="-57.692307692307692308%" r="3" fill="green"/>
  <circle cx="214%" cy="-53.846153846153846154%" r="3" fill="green"/>
  <circle cx="215%" cy="-115.384615384615384615%" r="3" fill="green"/>
  <circle cx="216%" cy="-261.538461538461538462%" r="3" fill="green"/>
  <circle cx="217%" cy="-688.461538461538461538%" r="3" fill="green"/>
  <circle cx="218%" cy="-403.846153846153846154%" r="3" fill="green"/>
  <circle cx="219%" cy="-742.307692307692307692%" r="3" fill="green"/>
  <circle cx="220%" cy="-30.769230769230769231%" r="3" fill="green"/>
  <circle cx="221%" cy="-96.153846153846153846%" r="3" fill="green"/>
  <circle cx="222%" cy="84.615384615384615385%" r="3" fill="green"/>
</svg>