<svg xmlns="http://www.w3.org/2000/svg" width="100%" height="100%">
  <style>
   
   .back{
     fill:transparent;
     stroke:black;
     stroke-width:1;
     stroke-dasharray:4;
   }
   text{
     fill:black;
     font-size:15 px;
     stroke:transparent;
     stroke-width:0;
     }
   #n100{
     stroke-dasharray:0;
   }
   .Poly{
     stroke:black;
     stroke-width:1;
     opacity:0.3;
    fill:red;
  }
   </style>
  <g class="back">
    <path class="background" id="n25" d="M 1025 500 1015.5872450464683 519.5457870617007 994.4369766510921 524.3731978045456 977.4757783024395 510.847093477939 977.4757783024395 489.1529065220611 994.4369766510921 475.6268021954544 1015.5872450464683 480.45421293829924  Z"/>
    <text class="LabelY" x="1000" y="525">25 %</text>
    <path class="background" id="n50" d="M 1050 500 1031.1744900929366 539.0915741234015 988.8739533021843 548.7463956090912 954.951556604879 521.694186955878 954.951556604879 478.3058130441221 988.8739533021843 451.25360439090883 1031.1744900929366 460.9084258765985  Z"/>
    <text class="LabelY" x="1000" y="550">50 %</text>
    <path class="background" id="n75" d="M 1075 500 1046.7617351394051 558.6373611851022 983.3109299532764 573.1195934136367 932.4273349073186 532.5412804338168 932.4273349073186 467.45871956618316 983.3109299532764 426.8804065863632 1046.7617351394051 441.36263881489776  Z"/>
    <text class="LabelY" x="1000" y="575">75 %</text>
    <path class="background" id="n100" d="M 1100 500 1062.3489801858734 578.183148246803 977.7479066043686 597.4927912181823 909.9031132097581 543.3883739117558 909.9031132097581 456.6116260882442 977.7479066043685 402.50720878181767 1062.3489801858734 421.816851753197  Z"/>
    <text class="LabelY" x="1000" y="600">100 %</text>,
   <line class="branch" x1="1000" y1="500" x2="1100" y2="500"/>
    <line class="branch" x1="1000" y1="500" x2="1062.3489801858734" y2="578.183148246803"/>
    <line class="branch" x1="1000" y1="500" x2="977.7479066043686" y2="597.4927912181823"/>
    <line class="branch" x1="1000" y1="500" x2="909.9031132097581" y2="543.3883739117558"/>
    <line class="branch" x1="1000" y1="500" x2="909.9031132097581" y2="456.6116260882442"/>
    <line class="branch" x1="1000" y1="500" x2="977.7479066043685" y2="402.50720878181767"/>
    <line class="branch" x1="1000" y1="500" x2="1062.3489801858734" y2="421.816851753197"/>
    <text class="label" x="1130" y="500" text-anchor="middle">Biographie</text>
    <text class="label" x="1081.0536742416355" y="601.6380927208438" text-anchor="middle">genre</text>
    <text class="label" x="971.0722785856791" y="626.7406285836371" text-anchor="middle">Nature</text>
    <text class="label" x="882.8740471726856" y="556.4048860852826" text-anchor="middle">Mélanges</text>
    <text class="label" x="882.8740471726856" y="443.59511391471744" text-anchor="middle">Illustration</text>
    <text class="label" x="971.0722785856791" y="373.2593714163629" text-anchor="middle">Index</text>
    <text class="label" x="1081.0536742416352" y="398.3619072791561" text-anchor="middle">Congres</text>
  </g>
  <g class="data">
    <path class="Poly" id="bnf" d="M 1000 500 1057.7707431850938 572.4422206314057 978.0005798828957 596.385757252798 909.9031132097581 543.3883739117558 944.914267803998 473.4721095159767 998.0235334657425 491.3405343152157 1062.3489801858734 421.816851753197  Z"/>
    <path class="Poly" id="inha" d="M 1086.4528428843782 500 1053.4969213190666 567.0830175211719 980.4455081475644 585.6738266216976 925.2409032902322 536.0020835004017 910.0748802923457 456.694344755565 980.3207347181844 413.7795052656066 1051.790837303663 435.05634416686445  Z"/>
    <path class="Poly" id="all" d="M 1059.8524844720496 500 1054.8119179071928 568.7319710868439 979.6932371294836 588.9697413026797 920.5216748671795 538.2747441292988 920.7944837635164 461.8566337109619 985.7676439912102 437.6439740640228 1055.0394335957594 430.98273326349766  Z"/>
  </g>
</svg>