<svg xmlns="http://www.w3.org/2000/svg" width="100%" height="100%">
  <text x="0.353356890459363958%" y="2%" font-family="Verdana" font-size="10">1740</text>
  <line x1="0.353356890459363958%" y1="0%" x2="0.353356890459363958%" y2="100%" stroke="black"/>
  <text x="2.120141342756183748%" y="2%" font-family="Verdana" font-size="10">1745</text>
  <line x1="2.120141342756183748%" y1="0%" x2="2.120141342756183748%" y2="100%" stroke="black"/>
  <text x="3.886925795053003538%" y="2%" font-family="Verdana" font-size="10">1750</text>
  <line x1="3.886925795053003538%" y1="0%" x2="3.886925795053003538%" y2="100%" stroke="black"/>
  <text x="5.653710247349823328%" y="2%" font-family="Verdana" font-size="10">1755</text>
  <line x1="5.653710247349823328%" y1="0%" x2="5.653710247349823328%" y2="100%" stroke="black"/>
  <text x="7.420494699646643118%" y="2%" font-family="Verdana" font-size="10">1760</text>
  <line x1="7.420494699646643118%" y1="0%" x2="7.420494699646643118%" y2="100%" stroke="black"/>
  <text x="9.187279151943462908%" y="2%" font-family="Verdana" font-size="10">1765</text>
  <line x1="9.187279151943462908%" y1="0%" x2="9.187279151943462908%" y2="100%" stroke="black"/>
  <text x="10.954063604240282698%" y="2%" font-family="Verdana" font-size="10">1770</text>
  <line x1="10.954063604240282698%" y1="0%" x2="10.954063604240282698%" y2="100%" stroke="black"/>
  <text x="12.720848056537102488%" y="2%" font-family="Verdana" font-size="10">1775</text>
  <line x1="12.720848056537102488%" y1="0%" x2="12.720848056537102488%" y2="100%" stroke="black"/>
  <text x="14.487632508833922278%" y="2%" font-family="Verdana" font-size="10">1780</text>
  <line x1="14.487632508833922278%" y1="0%" x2="14.487632508833922278%" y2="100%" stroke="black"/>
  <text x="16.254416961130742068%" y="2%" font-family="Verdana" font-size="10">1785</text>
  <line x1="16.254416961130742068%" y1="0%" x2="16.254416961130742068%" y2="100%" stroke="black"/>
  <text x="18.021201413427561858%" y="2%" font-family="Verdana" font-size="10">1790</text>
  <line x1="18.021201413427561858%" y1="0%" x2="18.021201413427561858%" y2="100%" stroke="black"/>
  <text x="19.787985865724381648%" y="2%" font-family="Verdana" font-size="10">1795</text>
  <line x1="19.787985865724381648%" y1="0%" x2="19.787985865724381648%" y2="100%" stroke="black"/>
  <text x="21.554770318021201438%" y="2%" font-family="Verdana" font-size="10">1800</text>
  <line x1="21.554770318021201438%" y1="0%" x2="21.554770318021201438%" y2="100%" stroke="black"/>
  <text x="23.321554770318021228%" y="2%" font-family="Verdana" font-size="10">1805</text>
  <line x1="23.321554770318021228%" y1="0%" x2="23.321554770318021228%" y2="100%" stroke="black"/>
  <text x="25.088339222614841018%" y="2%" font-family="Verdana" font-size="10">1810</text>
  <line x1="25.088339222614841018%" y1="0%" x2="25.088339222614841018%" y2="100%" stroke="black"/>
  <text x="26.855123674911660808%" y="2%" font-family="Verdana" font-size="10">1815</text>
  <line x1="26.855123674911660808%" y1="0%" x2="26.855123674911660808%" y2="100%" stroke="black"/>
  <text x="28.621908127208480598%" y="2%" font-family="Verdana" font-size="10">1820</text>
  <line x1="28.621908127208480598%" y1="0%" x2="28.621908127208480598%" y2="100%" stroke="black"/>
  <text x="30.388692579505300388%" y="2%" font-family="Verdana" font-size="10">1825</text>
  <line x1="30.388692579505300388%" y1="0%" x2="30.388692579505300388%" y2="100%" stroke="black"/>
  <text x="32.155477031802120178%" y="2%" font-family="Verdana" font-size="10">1830</text>
  <line x1="32.155477031802120178%" y1="0%" x2="32.155477031802120178%" y2="100%" stroke="black"/>
  <text x="33.922261484098939968%" y="2%" font-family="Verdana" font-size="10">1835</text>
  <line x1="33.922261484098939968%" y1="0%" x2="33.922261484098939968%" y2="100%" stroke="black"/>
  <text x="35.689045936395759758%" y="2%" font-family="Verdana" font-size="10">1840</text>
  <line x1="35.689045936395759758%" y1="0%" x2="35.689045936395759758%" y2="100%" stroke="black"/>
  <text x="37.455830388692579548%" y="2%" font-family="Verdana" font-size="10">1845</text>
  <line x1="37.455830388692579548%" y1="0%" x2="37.455830388692579548%" y2="100%" stroke="black"/>
  <text x="39.222614840989399338%" y="2%" font-family="Verdana" font-size="10">1850</text>
  <line x1="39.222614840989399338%" y1="0%" x2="39.222614840989399338%" y2="100%" stroke="black"/>
  <text x="40.989399293286219128%" y="2%" font-family="Verdana" font-size="10">1855</text>
  <line x1="40.989399293286219128%" y1="0%" x2="40.989399293286219128%" y2="100%" stroke="black"/>
  <text x="42.756183745583038918%" y="2%" font-family="Verdana" font-size="10">1860</text>
  <line x1="42.756183745583038918%" y1="0%" x2="42.756183745583038918%" y2="100%" stroke="black"/>
  <text x="44.522968197879858708%" y="2%" font-family="Verdana" font-size="10">1865</text>
  <line x1="44.522968197879858708%" y1="0%" x2="44.522968197879858708%" y2="100%" stroke="black"/>
  <text x="46.289752650176678498%" y="2%" font-family="Verdana" font-size="10">1870</text>
  <line x1="46.289752650176678498%" y1="0%" x2="46.289752650176678498%" y2="100%" stroke="black"/>
  <text x="48.056537102473498288%" y="2%" font-family="Verdana" font-size="10">1875</text>
  <line x1="48.056537102473498288%" y1="0%" x2="48.056537102473498288%" y2="100%" stroke="black"/>
  <text x="49.823321554770318078%" y="2%" font-family="Verdana" font-size="10">1880</text>
  <line x1="49.823321554770318078%" y1="0%" x2="49.823321554770318078%" y2="100%" stroke="black"/>
  <text x="51.590106007067137868%" y="2%" font-family="Verdana" font-size="10">1885</text>
  <line x1="51.590106007067137868%" y1="0%" x2="51.590106007067137868%" y2="100%" stroke="black"/>
  <text x="53.356890459363957658%" y="2%" font-family="Verdana" font-size="10">1890</text>
  <line x1="53.356890459363957658%" y1="0%" x2="53.356890459363957658%" y2="100%" stroke="black"/>
  <text x="55.123674911660777448%" y="2%" font-family="Verdana" font-size="10">1895</text>
  <line x1="55.123674911660777448%" y1="0%" x2="55.123674911660777448%" y2="100%" stroke="black"/>
  <text x="56.890459363957597238%" y="2%" font-family="Verdana" font-size="10">1900</text>
  <line x1="56.890459363957597238%" y1="0%" x2="56.890459363957597238%" y2="100%" stroke="black"/>
  <text x="58.657243816254417028%" y="2%" font-family="Verdana" font-size="10">1905</text>
  <line x1="58.657243816254417028%" y1="0%" x2="58.657243816254417028%" y2="100%" stroke="black"/>
  <text x="60.424028268551236818%" y="2%" font-family="Verdana" font-size="10">1910</text>
  <line x1="60.424028268551236818%" y1="0%" x2="60.424028268551236818%" y2="100%" stroke="black"/>
  <text x="62.190812720848056608%" y="2%" font-family="Verdana" font-size="10">1915</text>
  <line x1="62.190812720848056608%" y1="0%" x2="62.190812720848056608%" y2="100%" stroke="black"/>
  <text x="63.957597173144876398%" y="2%" font-family="Verdana" font-size="10">1920</text>
  <line x1="63.957597173144876398%" y1="0%" x2="63.957597173144876398%" y2="100%" stroke="black"/>
  <text x="65.724381625441696188%" y="2%" font-family="Verdana" font-size="10">1925</text>
  <line x1="65.724381625441696188%" y1="0%" x2="65.724381625441696188%" y2="100%" stroke="black"/>
  <text x="67.491166077738515978%" y="2%" font-family="Verdana" font-size="10">1930</text>
  <line x1="67.491166077738515978%" y1="0%" x2="67.491166077738515978%" y2="100%" stroke="black"/>
  <text x="69.257950530035335768%" y="2%" font-family="Verdana" font-size="10">1935</text>
  <line x1="69.257950530035335768%" y1="0%" x2="69.257950530035335768%" y2="100%" stroke="black"/>
  <text x="71.024734982332155558%" y="2%" font-family="Verdana" font-size="10">1940</text>
  <line x1="71.024734982332155558%" y1="0%" x2="71.024734982332155558%" y2="100%" stroke="black"/>
  <text x="72.791519434628975348%" y="2%" font-family="Verdana" font-size="10">1945</text>
  <line x1="72.791519434628975348%" y1="0%" x2="72.791519434628975348%" y2="100%" stroke="black"/>
  <text x="74.558303886925795138%" y="2%" font-family="Verdana" font-size="10">1950</text>
  <line x1="74.558303886925795138%" y1="0%" x2="74.558303886925795138%" y2="100%" stroke="black"/>
  <text x="76.325088339222614928%" y="2%" font-family="Verdana" font-size="10">1955</text>
  <line x1="76.325088339222614928%" y1="0%" x2="76.325088339222614928%" y2="100%" stroke="black"/>
  <text x="78.091872791519434718%" y="2%" font-family="Verdana" font-size="10">1960</text>
  <line x1="78.091872791519434718%" y1="0%" x2="78.091872791519434718%" y2="100%" stroke="black"/>
  <text x="79.858657243816254508%" y="2%" font-family="Verdana" font-size="10">1965</text>
  <line x1="79.858657243816254508%" y1="0%" x2="79.858657243816254508%" y2="100%" stroke="black"/>
  <text x="81.625441696113074298%" y="2%" font-family="Verdana" font-size="10">1970</text>
  <line x1="81.625441696113074298%" y1="0%" x2="81.625441696113074298%" y2="100%" stroke="black"/>
  <text x="83.392226148409894088%" y="2%" font-family="Verdana" font-size="10">1975</text>
  <line x1="83.392226148409894088%" y1="0%" x2="83.392226148409894088%" y2="100%" stroke="black"/>
  <text x="85.159010600706713878%" y="2%" font-family="Verdana" font-size="10">1980</text>
  <line x1="85.159010600706713878%" y1="0%" x2="85.159010600706713878%" y2="100%" stroke="black"/>
  <text x="86.925795053003533668%" y="2%" font-family="Verdana" font-size="10">1985</text>
  <line x1="86.925795053003533668%" y1="0%" x2="86.925795053003533668%" y2="100%" stroke="black"/>
  <text x="88.692579505300353458%" y="2%" font-family="Verdana" font-size="10">1990</text>
  <line x1="88.692579505300353458%" y1="0%" x2="88.692579505300353458%" y2="100%" stroke="black"/>
  <text x="90.459363957597173248%" y="2%" font-family="Verdana" font-size="10">1995</text>
  <line x1="90.459363957597173248%" y1="0%" x2="90.459363957597173248%" y2="100%" stroke="black"/>
  <text x="92.226148409893993038%" y="2%" font-family="Verdana" font-size="10">2000</text>
  <line x1="92.226148409893993038%" y1="0%" x2="92.226148409893993038%" y2="100%" stroke="black"/>
  <text x="93.992932862190812828%" y="2%" font-family="Verdana" font-size="10">2005</text>
  <line x1="93.992932862190812828%" y1="0%" x2="93.992932862190812828%" y2="100%" stroke="black"/>
  <text x="95.759717314487632618%" y="2%" font-family="Verdana" font-size="10">2010</text>
  <line x1="95.759717314487632618%" y1="0%" x2="95.759717314487632618%" y2="100%" stroke="black"/>
  <text x="97.526501766784452408%" y="2%" font-family="Verdana" font-size="10">2015</text>
  <line x1="97.526501766784452408%" y1="0%" x2="97.526501766784452408%" y2="100%" stroke="black"/>
  <text x="99.293286219081272198%" y="2%" font-family="Verdana" font-size="10">2020</text>
  <line x1="99.293286219081272198%" y1="0%" x2="99.293286219081272198%" y2="100%" stroke="black"/>
  <text x="2%" y="100%" font-family="Verdana" font-size="10">0</text>
  <line x1="0%" y1="100%" x2="100%" y2="100%" stroke="black"/>
  <text x="2%" y="97.125610807703363035%" font-family="Verdana" font-size="10">100</text>
  <line x1="0%" y1="97.125610807703363035%" x2="100%" y2="97.125610807703363035%" stroke="black"/>
  <text x="2%" y="94.251221615406726071%" font-family="Verdana" font-size="10">200</text>
  <line x1="0%" y1="94.251221615406726071%" x2="100%" y2="94.251221615406726071%" stroke="black"/>
  <text x="2%" y="91.376832423110089106%" font-family="Verdana" font-size="10">300</text>
  <line x1="0%" y1="91.376832423110089106%" x2="100%" y2="91.376832423110089106%" stroke="black"/>
  <text x="2%" y="88.502443230813452141%" font-family="Verdana" font-size="10">400</text>
  <line x1="0%" y1="88.502443230813452141%" x2="100%" y2="88.502443230813452141%" stroke="black"/>
  <text x="2%" y="85.628054038516815177%" font-family="Verdana" font-size="10">500</text>
  <line x1="0%" y1="85.628054038516815177%" x2="100%" y2="85.628054038516815177%" stroke="black"/>
  <text x="2%" y="82.753664846220178212%" font-family="Verdana" font-size="10">600</text>
  <line x1="0%" y1="82.753664846220178212%" x2="100%" y2="82.753664846220178212%" stroke="black"/>
  <text x="2%" y="79.879275653923541247%" font-family="Verdana" font-size="10">700</text>
  <line x1="0%" y1="79.879275653923541247%" x2="100%" y2="79.879275653923541247%" stroke="black"/>
  <text x="2%" y="77.004886461626904283%" font-family="Verdana" font-size="10">800</text>
  <line x1="0%" y1="77.004886461626904283%" x2="100%" y2="77.004886461626904283%" stroke="black"/>
  <text x="2%" y="74.130497269330267318%" font-family="Verdana" font-size="10">900</text>
  <line x1="0%" y1="74.130497269330267318%" x2="100%" y2="74.130497269330267318%" stroke="black"/>
  <text x="2%" y="71.256108077033630354%" font-family="Verdana" font-size="10">1000</text>
  <line x1="0%" y1="71.256108077033630354%" x2="100%" y2="71.256108077033630354%" stroke="black"/>
  <text x="2%" y="68.381718884736993389%" font-family="Verdana" font-size="10">1100</text>
  <line x1="0%" y1="68.381718884736993389%" x2="100%" y2="68.381718884736993389%" stroke="black"/>
  <text x="2%" y="65.507329692440356424%" font-family="Verdana" font-size="10">1200</text>
  <line x1="0%" y1="65.507329692440356424%" x2="100%" y2="65.507329692440356424%" stroke="black"/>
  <text x="2%" y="62.63294050014371946%" font-family="Verdana" font-size="10">1300</text>
  <line x1="0%" y1="62.63294050014371946%" x2="100%" y2="62.63294050014371946%" stroke="black"/>
  <text x="2%" y="59.758551307847082495%" font-family="Verdana" font-size="10">1400</text>
  <line x1="0%" y1="59.758551307847082495%" x2="100%" y2="59.758551307847082495%" stroke="black"/>
  <text x="2%" y="56.88416211555044553%" font-family="Verdana" font-size="10">1500</text>
  <line x1="0%" y1="56.88416211555044553%" x2="100%" y2="56.88416211555044553%" stroke="black"/>
  <text x="2%" y="54.009772923253808566%" font-family="Verdana" font-size="10">1600</text>
  <line x1="0%" y1="54.009772923253808566%" x2="100%" y2="54.009772923253808566%" stroke="black"/>
  <text x="2%" y="51.135383730957171601%" font-family="Verdana" font-size="10">1700</text>
  <line x1="0%" y1="51.135383730957171601%" x2="100%" y2="51.135383730957171601%" stroke="black"/>
  <text x="2%" y="48.260994538660534636%" font-family="Verdana" font-size="10">1800</text>
  <line x1="0%" y1="48.260994538660534636%" x2="100%" y2="48.260994538660534636%" stroke="black"/>
  <text x="2%" y="45.386605346363897672%" font-family="Verdana" font-size="10">1900</text>
  <line x1="0%" y1="45.386605346363897672%" x2="100%" y2="45.386605346363897672%" stroke="black"/>
  <text x="2%" y="42.512216154067260707%" font-family="Verdana" font-size="10">2000</text>
  <line x1="0%" y1="42.512216154067260707%" x2="100%" y2="42.512216154067260707%" stroke="black"/>
  <text x="2%" y="39.637826961770623742%" font-family="Verdana" font-size="10">2100</text>
  <line x1="0%" y1="39.637826961770623742%" x2="100%" y2="39.637826961770623742%" stroke="black"/>
  <text x="2%" y="36.763437769473986778%" font-family="Verdana" font-size="10">2200</text>
  <line x1="0%" y1="36.763437769473986778%" x2="100%" y2="36.763437769473986778%" stroke="black"/>
  <text x="2%" y="33.889048577177349813%" font-family="Verdana" font-size="10">2300</text>
  <line x1="0%" y1="33.889048577177349813%" x2="100%" y2="33.889048577177349813%" stroke="black"/>
  <text x="2%" y="31.014659384880712849%" font-family="Verdana" font-size="10">2400</text>
  <line x1="0%" y1="31.014659384880712849%" x2="100%" y2="31.014659384880712849%" stroke="black"/>
  <text x="2%" y="28.140270192584075884%" font-family="Verdana" font-size="10">2500</text>
  <line x1="0%" y1="28.140270192584075884%" x2="100%" y2="28.140270192584075884%" stroke="black"/>
  <text x="2%" y="25.265881000287438919%" font-family="Verdana" font-size="10">2600</text>
  <line x1="0%" y1="25.265881000287438919%" x2="100%" y2="25.265881000287438919%" stroke="black"/>
  <text x="2%" y="22.391491807990801955%" font-family="Verdana" font-size="10">2700</text>
  <line x1="0%" y1="22.391491807990801955%" x2="100%" y2="22.391491807990801955%" stroke="black"/>
  <text x="2%" y="19.51710261569416499%" font-family="Verdana" font-size="10">2800</text>
  <line x1="0%" y1="19.51710261569416499%" x2="100%" y2="19.51710261569416499%" stroke="black"/>
  <text x="2%" y="16.642713423397528025%" font-family="Verdana" font-size="10">2900</text>
  <line x1="0%" y1="16.642713423397528025%" x2="100%" y2="16.642713423397528025%" stroke="black"/>
  <text x="2%" y="13.768324231100891061%" font-family="Verdana" font-size="10">3000</text>
  <line x1="0%" y1="13.768324231100891061%" x2="100%" y2="13.768324231100891061%" stroke="black"/>
  <text x="2%" y="10.893935038804254096%" font-family="Verdana" font-size="10">3100</text>
  <line x1="0%" y1="10.893935038804254096%" x2="100%" y2="10.893935038804254096%" stroke="black"/>
  <text x="2%" y="8.019545846507617131%" font-family="Verdana" font-size="10">3200</text>
  <line x1="0%" y1="8.019545846507617131%" x2="100%" y2="8.019545846507617131%" stroke="black"/>
  <text x="2%" y="5.145156654210980167%" font-family="Verdana" font-size="10">3300</text>
  <line x1="0%" y1="5.145156654210980167%" x2="100%" y2="5.145156654210980167%" stroke="black"/>
  <text x="2%" y="2.270767461914343202%" font-family="Verdana" font-size="10">3400</text>
  <line x1="0%" y1="2.270767461914343202%" x2="100%" y2="2.270767461914343202%" stroke="black"/>
  <circle cx="0%" cy="99.97125610807703363%" r="3" fill="red"/>
  <circle cx="1.76678445229682%" cy="99.97125610807703363%" r="3" fill="red"/>
  <circle cx="5.30035335689046%" cy="99.942512216154067261%" r="3" fill="red"/>
  <circle cx="5.6537102473498235%" cy="99.942512216154067261%" r="3" fill="red"/>
  <circle cx="8.480565371024735%" cy="99.97125610807703363%" r="3" fill="red"/>
  <circle cx="9.187279151943462%" cy="99.942512216154067261%" r="3" fill="red"/>
  <circle cx="12.014134275618375%" cy="99.913768324231100891%" r="3" fill="red"/>
  <circle cx="12.36749116607774%" cy="99.97125610807703363%" r="3" fill="red"/>
  <circle cx="14.487632508833922%" cy="99.856280540385168152%" r="3" fill="red"/>
  <circle cx="14.840989399293287%" cy="99.942512216154067261%" r="3" fill="red"/>
  <circle cx="15.194346289752652%" cy="99.885024432308134521%" r="3" fill="red"/>
  <circle cx="16.607773851590107%" cy="99.97125610807703363%" r="3" fill="red"/>
  <circle cx="18.374558303886925%" cy="99.97125610807703363%" r="3" fill="red"/>
  <circle cx="19.081272084805654%" cy="99.97125610807703363%" r="3" fill="red"/>
  <circle cx="20.49469964664311%" cy="99.97125610807703363%" r="3" fill="red"/>
  <circle cx="20.848056537102476%" cy="99.97125610807703363%" r="3" fill="red"/>
  <circle cx="21.20141342756184%" cy="99.942512216154067261%" r="3" fill="red"/>
  <circle cx="22.26148409893993%" cy="99.97125610807703363%" r="3" fill="red"/>
  <circle cx="22.614840989399294%" cy="99.885024432308134521%" r="3" fill="red"/>
  <circle cx="22.968197879858657%" cy="99.97125610807703363%" r="3" fill="red"/>
  <circle cx="23.674911660777386%" cy="99.942512216154067261%" r="3" fill="red"/>
  <circle cx="25.08833922261484%" cy="99.97125610807703363%" r="3" fill="red"/>
  <circle cx="28.26855123674912%" cy="99.97125610807703363%" r="3" fill="red"/>
  <circle cx="28.62190812720848%" cy="99.885024432308134521%" r="3" fill="red"/>
  <circle cx="29.32862190812721%" cy="99.942512216154067261%" r="3" fill="red"/>
  <circle cx="30.035335689045937%" cy="99.712561080770336304%" r="3" fill="red"/>
  <circle cx="31.09540636042403%" cy="99.97125610807703363%" r="3" fill="red"/>
  <circle cx="32.15547703180212%" cy="99.97125610807703363%" r="3" fill="red"/>
  <circle cx="32.50883392226149%" cy="99.942512216154067261%" r="3" fill="red"/>
  <circle cx="32.86219081272085%" cy="99.97125610807703363%" r="3" fill="red"/>
  <circle cx="34.275618374558306%" cy="99.942512216154067261%" r="3" fill="red"/>
  <circle cx="34.62897526501767%" cy="99.827536648462201782%" r="3" fill="red"/>
  <circle cx="35.68904593639576%" cy="99.856280540385168152%" r="3" fill="red"/>
  <circle cx="36.74911660777385%" cy="99.942512216154067261%" r="3" fill="red"/>
  <circle cx="37.45583038869258%" cy="99.885024432308134521%" r="3" fill="red"/>
  <circle cx="37.80918727915194%" cy="99.97125610807703363%" r="3" fill="red"/>
  <circle cx="38.16254416961131%" cy="99.913768324231100891%" r="3" fill="red"/>
  <circle cx="38.515901060070675%" cy="99.942512216154067261%" r="3" fill="red"/>
  <circle cx="39.2226148409894%" cy="99.97125610807703363%" r="3" fill="red"/>
  <circle cx="39.57597173144877%" cy="99.97125610807703363%" r="3" fill="red"/>
  <circle cx="39.92932862190813%" cy="99.942512216154067261%" r="3" fill="red"/>
  <circle cx="40.28268551236749%" cy="99.942512216154067261%" r="3" fill="red"/>
  <circle cx="40.63604240282686%" cy="99.885024432308134521%" r="3" fill="red"/>
  <circle cx="40.98939929328622%" cy="99.97125610807703363%" r="3" fill="red"/>
  <circle cx="41.342756183745585%" cy="99.97125610807703363%" r="3" fill="red"/>
  <circle cx="41.69611307420495%" cy="99.827536648462201782%" r="3" fill="red"/>
  <circle cx="42.04946996466431%" cy="99.97125610807703363%" r="3" fill="red"/>
  <circle cx="42.75618374558304%" cy="99.97125610807703363%" r="3" fill="red"/>
  <circle cx="43.109540636042404%" cy="99.856280540385168152%" r="3" fill="red"/>
  <circle cx="43.46289752650177%" cy="99.655073296924403564%" r="3" fill="red"/>
  <circle cx="43.81625441696113%" cy="99.97125610807703363%" r="3" fill="red"/>
  <circle cx="44.169611307420496%" cy="99.97125610807703363%" r="3" fill="red"/>
  <circle cx="44.52296819787986%" cy="99.97125610807703363%" r="3" fill="red"/>
  <circle cx="44.87632508833922%" cy="99.885024432308134521%" r="3" fill="red"/>
  <circle cx="45.22968197879859%" cy="99.913768324231100891%" r="3" fill="red"/>
  <circle cx="45.583038869257955%" cy="99.913768324231100891%" r="3" fill="red"/>
  <circle cx="45.936395759717314%" cy="99.885024432308134521%" r="3" fill="red"/>
  <circle cx="46.28975265017668%" cy="99.741304972693302673%" r="3" fill="red"/>
  <circle cx="46.64310954063605%" cy="99.798792756539235412%" r="3" fill="red"/>
  <circle cx="46.996466431095406%" cy="99.913768324231100891%" r="3" fill="red"/>
  <circle cx="47.34982332155477%" cy="99.97125610807703363%" r="3" fill="red"/>
  <circle cx="47.70318021201414%" cy="99.827536648462201782%" r="3" fill="red"/>
  <circle cx="48.0565371024735%" cy="99.798792756539235412%" r="3" fill="red"/>
  <circle cx="48.409893992932865%" cy="99.885024432308134521%" r="3" fill="red"/>
  <circle cx="48.763250883392224%" cy="99.683817188847369934%" r="3" fill="red"/>
  <circle cx="49.11660777385159%" cy="99.425122161540672607%" r="3" fill="red"/>
  <circle cx="49.46996466431096%" cy="99.683817188847369934%" r="3" fill="red"/>
  <circle cx="49.82332155477032%" cy="99.683817188847369934%" r="3" fill="red"/>
  <circle cx="50.17667844522968%" cy="99.913768324231100891%" r="3" fill="red"/>
  <circle cx="50.53003533568905%" cy="99.942512216154067261%" r="3" fill="red"/>
  <circle cx="50.88339222614841%" cy="99.913768324231100891%" r="3" fill="red"/>
  <circle cx="51.236749116607776%" cy="99.626329405001437195%" r="3" fill="red"/>
  <circle cx="51.59010600706714%" cy="99.683817188847369934%" r="3" fill="red"/>
  <circle cx="51.9434628975265%" cy="99.712561080770336304%" r="3" fill="red"/>
  <circle cx="52.29681978798587%" cy="99.568841621155504455%" r="3" fill="red"/>
  <circle cx="52.650176678445234%" cy="99.453866053463638977%" r="3" fill="red"/>
  <circle cx="53.003533568904594%" cy="99.626329405001437195%" r="3" fill="red"/>
  <circle cx="53.35689045936396%" cy="99.425122161540672607%" r="3" fill="red"/>
  <circle cx="53.71024734982333%" cy="99.655073296924403564%" r="3" fill="red"/>
  <circle cx="54.063604240282686%" cy="99.856280540385168152%" r="3" fill="red"/>
  <circle cx="54.41696113074205%" cy="99.741304972693302673%" r="3" fill="red"/>
  <circle cx="54.77031802120142%" cy="99.252658810002874389%" r="3" fill="red"/>
  <circle cx="55.12367491166078%" cy="99.511353837309571716%" r="3" fill="red"/>
  <circle cx="55.477031802120145%" cy="99.856280540385168152%" r="3" fill="red"/>
  <circle cx="55.830388692579504%" cy="99.913768324231100891%" r="3" fill="red"/>
  <circle cx="56.18374558303887%" cy="99.856280540385168152%" r="3" fill="red"/>
  <circle cx="56.53710247349824%" cy="99.97125610807703363%" r="3" fill="red"/>
  <circle cx="56.890459363957596%" cy="99.913768324231100891%" r="3" fill="red"/>
  <circle cx="57.24381625441696%" cy="99.712561080770336304%" r="3" fill="red"/>
  <circle cx="57.59717314487633%" cy="99.712561080770336304%" r="3" fill="red"/>
  <circle cx="57.95053003533569%" cy="99.942512216154067261%" r="3" fill="red"/>
  <circle cx="58.303886925795055%" cy="99.683817188847369934%" r="3" fill="red"/>
  <circle cx="58.65724381625442%" cy="99.770048864616269043%" r="3" fill="red"/>
  <circle cx="59.01060070671378%" cy="99.942512216154067261%" r="3" fill="red"/>
  <circle cx="59.36395759717315%" cy="99.626329405001437195%" r="3" fill="red"/>
  <circle cx="59.717314487632514%" cy="99.885024432308134521%" r="3" fill="red"/>
  <circle cx="60.07067137809187%" cy="99.770048864616269043%" r="3" fill="red"/>
  <circle cx="60.42402826855124%" cy="99.482609945386605346%" r="3" fill="red"/>
  <circle cx="60.777385159010606%" cy="99.856280540385168152%" r="3" fill="red"/>
  <circle cx="61.130742049469966%" cy="99.770048864616269043%" r="3" fill="red"/>
  <circle cx="61.48409893992933%" cy="99.338890485771773498%" r="3" fill="red"/>
  <circle cx="61.83745583038869%" cy="97.959183673469387755%" r="3" fill="red"/>
  <circle cx="62.19081272084806%" cy="99.798792756539235412%" r="3" fill="red"/>
  <circle cx="62.544169611307424%" cy="99.856280540385168152%" r="3" fill="red"/>
  <circle cx="62.897526501766784%" cy="99.626329405001437195%" r="3" fill="red"/>
  <circle cx="63.25088339222615%" cy="99.741304972693302673%" r="3" fill="red"/>
  <circle cx="63.60424028268552%" cy="99.597585513078470825%" r="3" fill="red"/>
  <circle cx="63.957597173144876%" cy="99.626329405001437195%" r="3" fill="red"/>
  <circle cx="64.31095406360424%" cy="99.597585513078470825%" r="3" fill="red"/>
  <circle cx="64.66431095406361%" cy="99.770048864616269043%" r="3" fill="red"/>
  <circle cx="65.01766784452298%" cy="99.913768324231100891%" r="3" fill="red"/>
  <circle cx="65.37102473498233%" cy="99.568841621155504455%" r="3" fill="red"/>
  <circle cx="65.7243816254417%" cy="99.540097729232538086%" r="3" fill="red"/>
  <circle cx="66.07773851590106%" cy="99.338890485771773498%" r="3" fill="red"/>
  <circle cx="66.43109540636043%" cy="99.683817188847369934%" r="3" fill="red"/>
  <circle cx="66.7844522968198%" cy="99.770048864616269043%" r="3" fill="red"/>
  <circle cx="67.13780918727916%" cy="99.885024432308134521%" r="3" fill="red"/>
  <circle cx="67.49116607773851%" cy="99.712561080770336304%" r="3" fill="red"/>
  <circle cx="67.84452296819788%" cy="99.137683242311008911%" r="3" fill="red"/>
  <circle cx="68.19787985865725%" cy="99.597585513078470825%" r="3" fill="red"/>
  <circle cx="68.55123674911661%" cy="98.275366484622017821%" r="3" fill="red"/>
  <circle cx="68.90459363957598%" cy="99.655073296924403564%" r="3" fill="red"/>
  <circle cx="69.25795053003534%" cy="99.798792756539235412%" r="3" fill="red"/>
  <circle cx="69.6113074204947%" cy="99.741304972693302673%" r="3" fill="red"/>
  <circle cx="69.96466431095406%" cy="99.942512216154067261%" r="3" fill="red"/>
  <circle cx="70.31802120141343%" cy="99.885024432308134521%" r="3" fill="red"/>
  <circle cx="70.6713780918728%" cy="99.396378269617706237%" r="3" fill="red"/>
  <circle cx="71.02473498233216%" cy="96.924403564242598448%" r="3" fill="red"/>
  <circle cx="71.37809187279152%" cy="98.189134808853118712%" r="3" fill="red"/>
  <circle cx="71.73144876325088%" cy="97.413049726933026732%" r="3" fill="red"/>
  <circle cx="72.08480565371025%" cy="99.712561080770336304%" r="3" fill="red"/>
  <circle cx="72.43816254416961%" cy="99.19517102615694165%" r="3" fill="red"/>
  <circle cx="72.79151943462898%" cy="99.856280540385168152%" r="3" fill="red"/>
  <circle cx="73.14487632508835%" cy="99.19517102615694165%" r="3" fill="red"/>
  <circle cx="73.4982332155477%" cy="98.419085944236849669%" r="3" fill="red"/>
  <circle cx="73.85159010600707%" cy="99.597585513078470825%" r="3" fill="red"/>
  <circle cx="74.20494699646643%" cy="99.913768324231100891%" r="3" fill="red"/>
  <circle cx="74.5583038869258%" cy="99.798792756539235412%" r="3" fill="red"/>
  <circle cx="74.91166077738517%" cy="99.913768324231100891%" r="3" fill="red"/>
  <circle cx="75.26501766784453%" cy="99.942512216154067261%" r="3" fill="red"/>
  <circle cx="75.61837455830388%" cy="99.856280540385168152%" r="3" fill="red"/>
  <circle cx="75.97173144876325%" cy="99.425122161540672607%" r="3" fill="red"/>
  <circle cx="76.32508833922262%" cy="99.683817188847369934%" r="3" fill="red"/>
  <circle cx="76.67844522968198%" cy="99.511353837309571716%" r="3" fill="red"/>
  <circle cx="77.03180212014135%" cy="99.683817188847369934%" r="3" fill="red"/>
  <circle cx="77.38515901060072%" cy="99.741304972693302673%" r="3" fill="red"/>
  <circle cx="77.73851590106007%" cy="99.798792756539235412%" r="3" fill="red"/>
  <circle cx="78.09187279151944%" cy="99.913768324231100891%" r="3" fill="red"/>
  <circle cx="78.4452296819788%" cy="99.827536648462201782%" r="3" fill="red"/>
  <circle cx="78.79858657243817%" cy="99.827536648462201782%" r="3" fill="red"/>
  <circle cx="79.15194346289753%" cy="99.741304972693302673%" r="3" fill="red"/>
  <circle cx="79.50530035335689%" cy="99.97125610807703363%" r="3" fill="red"/>
  <circle cx="79.85865724381625%" cy="99.827536648462201782%" r="3" fill="red"/>
  <circle cx="80.21201413427562%" cy="99.683817188847369934%" r="3" fill="red"/>
  <circle cx="80.56537102473499%" cy="99.712561080770336304%" r="3" fill="red"/>
  <circle cx="80.91872791519435%" cy="99.913768324231100891%" r="3" fill="red"/>
  <circle cx="81.27208480565372%" cy="99.798792756539235412%" r="3" fill="red"/>
  <circle cx="81.62544169611307%" cy="99.252658810002874389%" r="3" fill="red"/>
  <circle cx="81.97879858657244%" cy="99.597585513078470825%" r="3" fill="red"/>
  <circle cx="82.3321554770318%" cy="98.965219890773210693%" r="3" fill="red"/>
  <circle cx="82.68551236749117%" cy="99.453866053463638977%" r="3" fill="red"/>
  <circle cx="83.03886925795054%" cy="99.540097729232538086%" r="3" fill="red"/>
  <circle cx="83.3922261484099%" cy="99.22391491807990802%" r="3" fill="red"/>
  <circle cx="83.74558303886926%" cy="99.482609945386605346%" r="3" fill="red"/>
  <circle cx="84.09893992932862%" cy="99.108939350388042541%" r="3" fill="red"/>
  <circle cx="84.45229681978799%" cy="99.511353837309571716%" r="3" fill="red"/>
  <circle cx="84.80565371024736%" cy="99.425122161540672607%" r="3" fill="red"/>
  <circle cx="85.15901060070672%" cy="99.051451566542109802%" r="3" fill="red"/>
  <circle cx="85.51236749116607%" cy="99.108939350388042541%" r="3" fill="red"/>
  <circle cx="85.86572438162544%" cy="99.482609945386605346%" r="3" fill="red"/>
  <circle cx="86.21908127208481%" cy="99.22391491807990802%" r="3" fill="red"/>
  <circle cx="86.57243816254417%" cy="99.22391491807990802%" r="3" fill="red"/>
  <circle cx="86.92579505300354%" cy="98.677780971543546996%" r="3" fill="red"/>
  <circle cx="87.2791519434629%" cy="97.384305835010060362%" r="3" fill="red"/>
  <circle cx="87.63250883392226%" cy="96.090830698476573728%" r="3" fill="red"/>
  <circle cx="87.98586572438163%" cy="95.228513940787582639%" r="3" fill="red"/>
  <circle cx="88.33922261484099%" cy="93.963782696177062374%" r="3" fill="red"/>
  <circle cx="88.69257950530036%" cy="95.286001724633515378%" r="3" fill="red"/>
  <circle cx="89.04593639575972%" cy="97.786720321931589537%" r="3" fill="red"/>
  <circle cx="89.39929328621909%" cy="95.314745616556481748%" r="3" fill="red"/>
  <circle cx="89.75265017667844%" cy="90.974417936188559931%" r="3" fill="red"/>
  <circle cx="90.10600706713781%" cy="90.22707674619143432%" r="3" fill="red"/>
  <circle cx="90.45936395759718%" cy="87.81258982466225927%" r="3" fill="red"/>
  <circle cx="90.81272084805654%" cy="82.811152630066110951%" r="3" fill="red"/>
  <circle cx="91.16607773851591%" cy="0%" r="3" fill="red"/>
  <circle cx="91.51943462897526%" cy="16.987640126473124461%" r="3" fill="red"/>
  <circle cx="91.87279151943463%" cy="95.91836734693877551%" r="3" fill="red"/>
  <circle cx="92.226148409894%" cy="95.08479448117275079%" r="3" fill="red"/>
  <circle cx="92.57950530035336%" cy="94.768611670020120724%" r="3" fill="red"/>
  <circle cx="92.93286219081273%" cy="94.050014371945961483%" r="3" fill="red"/>
  <circle cx="93.2862190812721%" cy="93.245185398102903133%" r="3" fill="red"/>
  <circle cx="93.63957597173145%" cy="91.03190572003449267%" r="3" fill="red"/>
  <circle cx="93.99293286219081%" cy="90.744466800804828974%" r="3" fill="red"/>
  <circle cx="94.34628975265018%" cy="89.019833285426846795%" r="3" fill="red"/>
  <circle cx="94.69964664310955%" cy="86.720321931589537223%" r="3" fill="red"/>
  <circle cx="95.05300353356891%" cy="94.653636102328255246%" r="3" fill="red"/>
  <circle cx="95.40636042402828%" cy="95.544696751940212705%" r="3" fill="red"/>
  <circle cx="95.75971731448763%" cy="95.228513940787582639%" r="3" fill="red"/>
  <circle cx="96.113074204947%" cy="95.774647887323943662%" r="3" fill="red"/>
  <circle cx="96.46643109540636%" cy="95.372233400402414487%" r="3" fill="red"/>
  <circle cx="96.81978798586573%" cy="97.068123023857430296%" r="3" fill="red"/>
  <circle cx="97.1731448763251%" cy="92.756539235412474849%" r="3" fill="red"/>
  <circle cx="97.52650176678445%" cy="92.929002586950273067%" r="3" fill="red"/>
  <circle cx="97.87985865724382%" cy="92.584075883874676631%" r="3" fill="red"/>
  <circle cx="98.23321554770318%" cy="83.069847657372808278%" r="3" fill="red"/>
  <circle cx="98.58657243816255%" cy="78.729519977004886462%" r="3" fill="red"/>
  <circle cx="98.93992932862191%" cy="74.073009485484334579%" r="3" fill="red"/>
  <circle cx="99.29328621908128%" cy="84.59327392929002587%" r="3" fill="red"/>
  <circle cx="99.64664310954063%" cy="76.228801379706812302%" r="3" fill="red"/>
  <circle cx="100%" cy="96.579476861167002012%" r="3" fill="red"/>
  <circle cx="0%" cy="99.97125610807703363%" r="3" fill="blue"/>
  <circle cx="5.30035335689046%" cy="99.942512216154067261%" r="3" fill="blue"/>
  <circle cx="8.480565371024735%" cy="99.97125610807703363%" r="3" fill="blue"/>
  <circle cx="9.187279151943462%" cy="99.942512216154067261%" r="3" fill="blue"/>
  <circle cx="12.014134275618375%" cy="99.913768324231100891%" r="3" fill="blue"/>
  <circle cx="14.487632508833922%" cy="99.856280540385168152%" r="3" fill="blue"/>
  <circle cx="14.840989399293287%" cy="99.942512216154067261%" r="3" fill="blue"/>
  <circle cx="15.194346289752652%" cy="99.885024432308134521%" r="3" fill="blue"/>
  <circle cx="18.374558303886925%" cy="99.97125610807703363%" r="3" fill="blue"/>
  <circle cx="20.848056537102476%" cy="99.97125610807703363%" r="3" fill="blue"/>
  <circle cx="21.20141342756184%" cy="99.97125610807703363%" r="3" fill="blue"/>
  <circle cx="22.26148409893993%" cy="99.97125610807703363%" r="3" fill="blue"/>
  <circle cx="22.614840989399294%" cy="99.885024432308134521%" r="3" fill="blue"/>
  <circle cx="23.674911660777386%" cy="99.942512216154067261%" r="3" fill="blue"/>
  <circle cx="25.08833922261484%" cy="99.97125610807703363%" r="3" fill="blue"/>
  <circle cx="30.035335689045937%" cy="99.712561080770336304%" r="3" fill="blue"/>
  <circle cx="34.62897526501767%" cy="99.942512216154067261%" r="3" fill="blue"/>
  <circle cx="36.74911660777385%" cy="99.942512216154067261%" r="3" fill="blue"/>
  <circle cx="37.45583038869258%" cy="99.97125610807703363%" r="3" fill="blue"/>
  <circle cx="38.16254416961131%" cy="99.913768324231100891%" r="3" fill="blue"/>
  <circle cx="38.515901060070675%" cy="99.97125610807703363%" r="3" fill="blue"/>
  <circle cx="40.63604240282686%" cy="99.97125610807703363%" r="3" fill="blue"/>
  <circle cx="41.342756183745585%" cy="99.97125610807703363%" r="3" fill="blue"/>
  <circle cx="41.69611307420495%" cy="99.827536648462201782%" r="3" fill="blue"/>
  <circle cx="44.169611307420496%" cy="99.97125610807703363%" r="3" fill="blue"/>
  <circle cx="44.87632508833922%" cy="99.97125610807703363%" r="3" fill="blue"/>
  <circle cx="45.22968197879859%" cy="99.942512216154067261%" r="3" fill="blue"/>
  <circle cx="45.583038869257955%" cy="99.97125610807703363%" r="3" fill="blue"/>
  <circle cx="46.28975265017668%" cy="99.97125610807703363%" r="3" fill="blue"/>
  <circle cx="46.64310954063605%" cy="99.913768324231100891%" r="3" fill="blue"/>
  <circle cx="47.70318021201414%" cy="99.856280540385168152%" r="3" fill="blue"/>
  <circle cx="48.0565371024735%" cy="99.885024432308134521%" r="3" fill="blue"/>
  <circle cx="48.409893992932865%" cy="99.97125610807703363%" r="3" fill="blue"/>
  <circle cx="48.763250883392224%" cy="99.913768324231100891%" r="3" fill="blue"/>
  <circle cx="49.11660777385159%" cy="99.770048864616269043%" r="3" fill="blue"/>
  <circle cx="49.46996466431096%" cy="99.770048864616269043%" r="3" fill="blue"/>
  <circle cx="49.82332155477032%" cy="99.913768324231100891%" r="3" fill="blue"/>
  <circle cx="50.17667844522968%" cy="99.97125610807703363%" r="3" fill="blue"/>
  <circle cx="50.53003533568905%" cy="99.97125610807703363%" r="3" fill="blue"/>
  <circle cx="51.236749116607776%" cy="99.942512216154067261%" r="3" fill="blue"/>
  <circle cx="51.59010600706714%" cy="99.942512216154067261%" r="3" fill="blue"/>
  <circle cx="51.9434628975265%" cy="99.97125610807703363%" r="3" fill="blue"/>
  <circle cx="52.29681978798587%" cy="99.913768324231100891%" r="3" fill="blue"/>
  <circle cx="52.650176678445234%" cy="99.798792756539235412%" r="3" fill="blue"/>
  <circle cx="53.003533568904594%" cy="99.942512216154067261%" r="3" fill="blue"/>
  <circle cx="53.35689045936396%" cy="99.798792756539235412%" r="3" fill="blue"/>
  <circle cx="53.71024734982333%" cy="99.712561080770336304%" r="3" fill="blue"/>
  <circle cx="54.063604240282686%" cy="99.885024432308134521%" r="3" fill="blue"/>
  <circle cx="54.41696113074205%" cy="99.942512216154067261%" r="3" fill="blue"/>
  <circle cx="54.77031802120142%" cy="99.540097729232538086%" r="3" fill="blue"/>
  <circle cx="55.12367491166078%" cy="99.683817188847369934%" r="3" fill="blue"/>
  <circle cx="55.477031802120145%" cy="99.913768324231100891%" r="3" fill="blue"/>
  <circle cx="55.830388692579504%" cy="99.97125610807703363%" r="3" fill="blue"/>
  <circle cx="56.18374558303887%" cy="99.885024432308134521%" r="3" fill="blue"/>
  <circle cx="56.53710247349824%" cy="99.97125610807703363%" r="3" fill="blue"/>
  <circle cx="57.24381625441696%" cy="99.913768324231100891%" r="3" fill="blue"/>
  <circle cx="57.59717314487633%" cy="99.97125610807703363%" r="3" fill="blue"/>
  <circle cx="58.303886925795055%" cy="99.712561080770336304%" r="3" fill="blue"/>
  <circle cx="58.65724381625442%" cy="99.798792756539235412%" r="3" fill="blue"/>
  <circle cx="59.01060070671378%" cy="99.942512216154067261%" r="3" fill="blue"/>
  <circle cx="59.36395759717315%" cy="99.626329405001437195%" r="3" fill="blue"/>
  <circle cx="60.07067137809187%" cy="99.885024432308134521%" r="3" fill="blue"/>
  <circle cx="60.42402826855124%" cy="99.885024432308134521%" r="3" fill="blue"/>
  <circle cx="60.777385159010606%" cy="99.913768324231100891%" r="3" fill="blue"/>
  <circle cx="61.130742049469966%" cy="99.856280540385168152%" r="3" fill="blue"/>
  <circle cx="61.48409893992933%" cy="99.540097729232538086%" r="3" fill="blue"/>
  <circle cx="61.83745583038869%" cy="98.045415349238286864%" r="3" fill="blue"/>
  <circle cx="62.19081272084806%" cy="99.827536648462201782%" r="3" fill="blue"/>
  <circle cx="62.544169611307424%" cy="99.856280540385168152%" r="3" fill="blue"/>
  <circle cx="62.897526501766784%" cy="99.655073296924403564%" r="3" fill="blue"/>
  <circle cx="63.25088339222615%" cy="99.798792756539235412%" r="3" fill="blue"/>
  <circle cx="63.60424028268552%" cy="99.655073296924403564%" r="3" fill="blue"/>
  <circle cx="63.957597173144876%" cy="99.712561080770336304%" r="3" fill="blue"/>
  <circle cx="64.31095406360424%" cy="99.683817188847369934%" r="3" fill="blue"/>
  <circle cx="64.66431095406361%" cy="99.913768324231100891%" r="3" fill="blue"/>
  <circle cx="65.01766784452298%" cy="99.942512216154067261%" r="3" fill="blue"/>
  <circle cx="65.37102473498233%" cy="99.770048864616269043%" r="3" fill="blue"/>
  <circle cx="65.7243816254417%" cy="99.540097729232538086%" r="3" fill="blue"/>
  <circle cx="66.07773851590106%" cy="99.425122161540672607%" r="3" fill="blue"/>
  <circle cx="66.43109540636043%" cy="99.741304972693302673%" r="3" fill="blue"/>
  <circle cx="66.7844522968198%" cy="99.827536648462201782%" r="3" fill="blue"/>
  <circle cx="67.13780918727916%" cy="99.913768324231100891%" r="3" fill="blue"/>
  <circle cx="67.49116607773851%" cy="99.827536648462201782%" r="3" fill="blue"/>
  <circle cx="67.84452296819788%" cy="99.137683242311008911%" r="3" fill="blue"/>
  <circle cx="68.19787985865725%" cy="99.655073296924403564%" r="3" fill="blue"/>
  <circle cx="68.55123674911661%" cy="98.447829836159816039%" r="3" fill="blue"/>
  <circle cx="68.90459363957598%" cy="99.913768324231100891%" r="3" fill="blue"/>
  <circle cx="69.25795053003534%" cy="99.942512216154067261%" r="3" fill="blue"/>
  <circle cx="69.96466431095406%" cy="99.97125610807703363%" r="3" fill="blue"/>
  <circle cx="70.6713780918728%" cy="99.453866053463638977%" r="3" fill="blue"/>
  <circle cx="71.02473498233216%" cy="96.924403564242598448%" r="3" fill="blue"/>
  <circle cx="71.37809187279152%" cy="98.246622592699051452%" r="3" fill="blue"/>
  <circle cx="71.73144876325088%" cy="97.413049726933026732%" r="3" fill="blue"/>
  <circle cx="72.08480565371025%" cy="99.913768324231100891%" r="3" fill="blue"/>
  <circle cx="72.43816254416961%" cy="99.19517102615694165%" r="3" fill="blue"/>
  <circle cx="72.79151943462898%" cy="99.856280540385168152%" r="3" fill="blue"/>
  <circle cx="73.14487632508835%" cy="99.19517102615694165%" r="3" fill="blue"/>
  <circle cx="73.4982332155477%" cy="98.419085944236849669%" r="3" fill="blue"/>
  <circle cx="73.85159010600707%" cy="99.626329405001437195%" r="3" fill="blue"/>
  <circle cx="74.20494699646643%" cy="99.942512216154067261%" r="3" fill="blue"/>
  <circle cx="74.5583038869258%" cy="99.942512216154067261%" r="3" fill="blue"/>
  <circle cx="75.61837455830388%" cy="99.913768324231100891%" r="3" fill="blue"/>
  <circle cx="75.97173144876325%" cy="99.597585513078470825%" r="3" fill="blue"/>
  <circle cx="76.32508833922262%" cy="99.827536648462201782%" r="3" fill="blue"/>
  <circle cx="76.67844522968198%" cy="99.97125610807703363%" r="3" fill="blue"/>
  <circle cx="77.38515901060072%" cy="99.97125610807703363%" r="3" fill="blue"/>
  <circle cx="78.4452296819788%" cy="99.97125610807703363%" r="3" fill="blue"/>
  <circle cx="79.15194346289753%" cy="99.942512216154067261%" r="3" fill="blue"/>
  <circle cx="79.85865724381625%" cy="99.97125610807703363%" r="3" fill="blue"/>
  <circle cx="80.21201413427562%" cy="99.913768324231100891%" r="3" fill="blue"/>
  <circle cx="80.56537102473499%" cy="99.942512216154067261%" r="3" fill="blue"/>
  <circle cx="80.91872791519435%" cy="99.97125610807703363%" r="3" fill="blue"/>
  <circle cx="81.27208480565372%" cy="99.97125610807703363%" r="3" fill="blue"/>
  <circle cx="81.62544169611307%" cy="99.97125610807703363%" r="3" fill="blue"/>
  <circle cx="81.97879858657244%" cy="99.913768324231100891%" r="3" fill="blue"/>
  <circle cx="82.3321554770318%" cy="99.942512216154067261%" r="3" fill="blue"/>
  <circle cx="82.68551236749117%" cy="99.97125610807703363%" r="3" fill="blue"/>
  <circle cx="83.03886925795054%" cy="99.97125610807703363%" r="3" fill="blue"/>
  <circle cx="83.3922261484099%" cy="99.885024432308134521%" r="3" fill="blue"/>
  <circle cx="84.45229681978799%" cy="99.942512216154067261%" r="3" fill="blue"/>
  <circle cx="85.15901060070672%" cy="99.885024432308134521%" r="3" fill="blue"/>
  <circle cx="85.51236749116607%" cy="99.913768324231100891%" r="3" fill="blue"/>
  <circle cx="86.21908127208481%" cy="99.97125610807703363%" r="3" fill="blue"/>
  <circle cx="86.57243816254417%" cy="99.885024432308134521%" r="3" fill="blue"/>
  <circle cx="86.92579505300354%" cy="99.913768324231100891%" r="3" fill="blue"/>
  <circle cx="87.2791519434629%" cy="99.97125610807703363%" r="3" fill="blue"/>
  <circle cx="87.63250883392226%" cy="99.798792756539235412%" r="3" fill="blue"/>
  <circle cx="87.98586572438163%" cy="99.942512216154067261%" r="3" fill="blue"/>
  <circle cx="88.33922261484099%" cy="99.856280540385168152%" r="3" fill="blue"/>
  <circle cx="88.69257950530036%" cy="99.885024432308134521%" r="3" fill="blue"/>
  <circle cx="89.04593639575972%" cy="99.97125610807703363%" r="3" fill="blue"/>
  <circle cx="89.39929328621909%" cy="97.298074159241161253%" r="3" fill="blue"/>
  <circle cx="89.75265017667844%" cy="95.343489508479448117%" r="3" fill="blue"/>
  <circle cx="90.10600706713781%" cy="94.596148318482322506%" r="3" fill="blue"/>
  <circle cx="90.45936395759718%" cy="90.457027881575165277%" r="3" fill="blue"/>
  <circle cx="90.81272084805654%" cy="85.225639551595286002%" r="3" fill="blue"/>
  <circle cx="91.16607773851591%" cy="2.385743029606208681%" r="3" fill="blue"/>
  <circle cx="91.51943462897526%" cy="19.057200344926703076%" r="3" fill="blue"/>
  <circle cx="91.87279151943463%" cy="99.913768324231100891%" r="3" fill="blue"/>
  <circle cx="92.226148409894%" cy="99.655073296924403564%" r="3" fill="blue"/>
  <circle cx="92.57950530035336%" cy="99.798792756539235412%" r="3" fill="blue"/>
  <circle cx="92.93286219081273%" cy="97.499281402701925841%" r="3" fill="blue"/>
  <circle cx="93.2862190812721%" cy="96.608220753089968382%" r="3" fill="blue"/>
  <circle cx="93.63957597173145%" cy="94.739867778097154355%" r="3" fill="blue"/>
  <circle cx="93.99293286219081%" cy="95.286001724633515378%" r="3" fill="blue"/>
  <circle cx="94.34628975265018%" cy="90.744466800804828974%" r="3" fill="blue"/>
  <circle cx="94.69964664310955%" cy="89.3935038804254096%" r="3" fill="blue"/>
  <circle cx="95.05300353356891%" cy="95.91836734693877551%" r="3" fill="blue"/>
  <circle cx="95.40636042402828%" cy="96.493245185398102903%" r="3" fill="blue"/>
  <circle cx="95.75971731448763%" cy="96.809427996550732969%" r="3" fill="blue"/>
  <circle cx="96.113074204947%" cy="97.125610807703363035%" r="3" fill="blue"/>
  <circle cx="96.46643109540636%" cy="96.924403564242598448%" r="3" fill="blue"/>
  <circle cx="96.81978798586573%" cy="98.246622592699051452%" r="3" fill="blue"/>
  <circle cx="97.1731448763251%" cy="93.906294912331129635%" r="3" fill="blue"/>
  <circle cx="97.52650176678445%" cy="94.538660534636389767%" r="3" fill="blue"/>
  <circle cx="97.87985865724382%" cy="95.286001724633515378%" r="3" fill="blue"/>
  <circle cx="98.23321554770318%" cy="88.962345501580914056%" r="3" fill="blue"/>
  <circle cx="98.58657243816255%" cy="82.494969818913480885%" r="3" fill="blue"/>
  <circle cx="98.93992932862191%" cy="80.367921816613969531%" r="3" fill="blue"/>
  <circle cx="99.29328621908128%" cy="85.570566254670882437%" r="3" fill="blue"/>
  <circle cx="99.64664310954063%" cy="77.694739867778097154%" r="3" fill="blue"/>
  <circle cx="100%" cy="96.694452428858867491%" r="3" fill="blue"/>
  <circle cx="1.76678445229682%" cy="99.97125610807703363%" r="3" fill="green"/>
  <circle cx="5.6537102473498235%" cy="99.942512216154067261%" r="3" fill="green"/>
  <circle cx="12.36749116607774%" cy="99.97125610807703363%" r="3" fill="green"/>
  <circle cx="16.607773851590107%" cy="99.97125610807703363%" r="3" fill="green"/>
  <circle cx="19.081272084805654%" cy="99.97125610807703363%" r="3" fill="green"/>
  <circle cx="20.49469964664311%" cy="99.97125610807703363%" r="3" fill="green"/>
  <circle cx="21.20141342756184%" cy="99.97125610807703363%" r="3" fill="green"/>
  <circle cx="22.968197879858657%" cy="99.97125610807703363%" r="3" fill="green"/>
  <circle cx="28.26855123674912%" cy="99.97125610807703363%" r="3" fill="green"/>
  <circle cx="28.62190812720848%" cy="99.885024432308134521%" r="3" fill="green"/>
  <circle cx="29.32862190812721%" cy="99.942512216154067261%" r="3" fill="green"/>
  <circle cx="31.09540636042403%" cy="99.97125610807703363%" r="3" fill="green"/>
  <circle cx="32.15547703180212%" cy="99.97125610807703363%" r="3" fill="green"/>
  <circle cx="32.50883392226149%" cy="99.942512216154067261%" r="3" fill="green"/>
  <circle cx="32.86219081272085%" cy="99.97125610807703363%" r="3" fill="green"/>
  <circle cx="34.275618374558306%" cy="99.942512216154067261%" r="3" fill="green"/>
  <circle cx="34.62897526501767%" cy="99.885024432308134521%" r="3" fill="green"/>
  <circle cx="35.68904593639576%" cy="99.856280540385168152%" r="3" fill="green"/>
  <circle cx="37.45583038869258%" cy="99.913768324231100891%" r="3" fill="green"/>
  <circle cx="37.80918727915194%" cy="99.97125610807703363%" r="3" fill="green"/>
  <circle cx="38.515901060070675%" cy="99.97125610807703363%" r="3" fill="green"/>
  <circle cx="39.2226148409894%" cy="99.97125610807703363%" r="3" fill="green"/>
  <circle cx="39.57597173144877%" cy="99.97125610807703363%" r="3" fill="green"/>
  <circle cx="39.92932862190813%" cy="99.942512216154067261%" r="3" fill="green"/>
  <circle cx="40.28268551236749%" cy="99.942512216154067261%" r="3" fill="green"/>
  <circle cx="40.63604240282686%" cy="99.913768324231100891%" r="3" fill="green"/>
  <circle cx="40.98939929328622%" cy="99.97125610807703363%" r="3" fill="green"/>
  <circle cx="42.04946996466431%" cy="99.97125610807703363%" r="3" fill="green"/>
  <circle cx="42.75618374558304%" cy="99.97125610807703363%" r="3" fill="green"/>
  <circle cx="43.109540636042404%" cy="99.856280540385168152%" r="3" fill="green"/>
  <circle cx="43.46289752650177%" cy="99.655073296924403564%" r="3" fill="green"/>
  <circle cx="43.81625441696113%" cy="99.97125610807703363%" r="3" fill="green"/>
  <circle cx="44.52296819787986%" cy="99.97125610807703363%" r="3" fill="green"/>
  <circle cx="44.87632508833922%" cy="99.913768324231100891%" r="3" fill="green"/>
  <circle cx="45.22968197879859%" cy="99.97125610807703363%" r="3" fill="green"/>
  <circle cx="45.583038869257955%" cy="99.942512216154067261%" r="3" fill="green"/>
  <circle cx="45.936395759717314%" cy="99.885024432308134521%" r="3" fill="green"/>
  <circle cx="46.28975265017668%" cy="99.770048864616269043%" r="3" fill="green"/>
  <circle cx="46.64310954063605%" cy="99.885024432308134521%" r="3" fill="green"/>
  <circle cx="46.996466431095406%" cy="99.913768324231100891%" r="3" fill="green"/>
  <circle cx="47.34982332155477%" cy="99.97125610807703363%" r="3" fill="green"/>
  <circle cx="47.70318021201414%" cy="99.97125610807703363%" r="3" fill="green"/>
  <circle cx="48.0565371024735%" cy="99.913768324231100891%" r="3" fill="green"/>
  <circle cx="48.409893992932865%" cy="99.913768324231100891%" r="3" fill="green"/>
  <circle cx="48.763250883392224%" cy="99.770048864616269043%" r="3" fill="green"/>
  <circle cx="49.11660777385159%" cy="99.655073296924403564%" r="3" fill="green"/>
  <circle cx="49.46996466431096%" cy="99.913768324231100891%" r="3" fill="green"/>
  <circle cx="49.82332155477032%" cy="99.770048864616269043%" r="3" fill="green"/>
  <circle cx="50.17667844522968%" cy="99.942512216154067261%" r="3" fill="green"/>
  <circle cx="50.53003533568905%" cy="99.97125610807703363%" r="3" fill="green"/>
  <circle cx="50.88339222614841%" cy="99.913768324231100891%" r="3" fill="green"/>
  <circle cx="51.236749116607776%" cy="99.683817188847369934%" r="3" fill="green"/>
  <circle cx="51.59010600706714%" cy="99.741304972693302673%" r="3" fill="green"/>
  <circle cx="51.9434628975265%" cy="99.741304972693302673%" r="3" fill="green"/>
  <circle cx="52.29681978798587%" cy="99.655073296924403564%" r="3" fill="green"/>
  <circle cx="52.650176678445234%" cy="99.655073296924403564%" r="3" fill="green"/>
  <circle cx="53.003533568904594%" cy="99.683817188847369934%" r="3" fill="green"/>
  <circle cx="53.35689045936396%" cy="99.626329405001437195%" r="3" fill="green"/>
  <circle cx="53.71024734982333%" cy="99.942512216154067261%" r="3" fill="green"/>
  <circle cx="54.063604240282686%" cy="99.97125610807703363%" r="3" fill="green"/>
  <circle cx="54.41696113074205%" cy="99.798792756539235412%" r="3" fill="green"/>
  <circle cx="54.77031802120142%" cy="99.712561080770336304%" r="3" fill="green"/>
  <circle cx="55.12367491166078%" cy="99.827536648462201782%" r="3" fill="green"/>
  <circle cx="55.477031802120145%" cy="99.942512216154067261%" r="3" fill="green"/>
  <circle cx="55.830388692579504%" cy="99.942512216154067261%" r="3" fill="green"/>
  <circle cx="56.18374558303887%" cy="99.97125610807703363%" r="3" fill="green"/>
  <circle cx="56.890459363957596%" cy="99.913768324231100891%" r="3" fill="green"/>
  <circle cx="57.24381625441696%" cy="99.798792756539235412%" r="3" fill="green"/>
  <circle cx="57.59717314487633%" cy="99.741304972693302673%" r="3" fill="green"/>
  <circle cx="57.95053003533569%" cy="99.942512216154067261%" r="3" fill="green"/>
  <circle cx="58.303886925795055%" cy="99.97125610807703363%" r="3" fill="green"/>
  <circle cx="58.65724381625442%" cy="99.97125610807703363%" r="3" fill="green"/>
  <circle cx="59.717314487632514%" cy="99.885024432308134521%" r="3" fill="green"/>
  <circle cx="60.07067137809187%" cy="99.885024432308134521%" r="3" fill="green"/>
  <circle cx="60.42402826855124%" cy="99.597585513078470825%" r="3" fill="green"/>
  <circle cx="60.777385159010606%" cy="99.942512216154067261%" r="3" fill="green"/>
  <circle cx="61.130742049469966%" cy="99.913768324231100891%" r="3" fill="green"/>
  <circle cx="61.48409893992933%" cy="99.798792756539235412%" r="3" fill="green"/>
  <circle cx="61.83745583038869%" cy="99.913768324231100891%" r="3" fill="green"/>
  <circle cx="62.19081272084806%" cy="99.97125610807703363%" r="3" fill="green"/>
  <circle cx="62.897526501766784%" cy="99.97125610807703363%" r="3" fill="green"/>
  <circle cx="63.25088339222615%" cy="99.942512216154067261%" r="3" fill="green"/>
  <circle cx="63.60424028268552%" cy="99.942512216154067261%" r="3" fill="green"/>
  <circle cx="63.957597173144876%" cy="99.913768324231100891%" r="3" fill="green"/>
  <circle cx="64.31095406360424%" cy="99.913768324231100891%" r="3" fill="green"/>
  <circle cx="64.66431095406361%" cy="99.856280540385168152%" r="3" fill="green"/>
  <circle cx="65.01766784452298%" cy="99.97125610807703363%" r="3" fill="green"/>
  <circle cx="65.37102473498233%" cy="99.798792756539235412%" r="3" fill="green"/>
  <circle cx="66.07773851590106%" cy="99.913768324231100891%" r="3" fill="green"/>
  <circle cx="66.43109540636043%" cy="99.942512216154067261%" r="3" fill="green"/>
  <circle cx="66.7844522968198%" cy="99.942512216154067261%" r="3" fill="green"/>
  <circle cx="67.13780918727916%" cy="99.97125610807703363%" r="3" fill="green"/>
  <circle cx="67.49116607773851%" cy="99.885024432308134521%" r="3" fill="green"/>
  <circle cx="68.19787985865725%" cy="99.942512216154067261%" r="3" fill="green"/>
  <circle cx="68.55123674911661%" cy="99.827536648462201782%" r="3" fill="green"/>
  <circle cx="68.90459363957598%" cy="99.741304972693302673%" r="3" fill="green"/>
  <circle cx="69.25795053003534%" cy="99.856280540385168152%" r="3" fill="green"/>
  <circle cx="69.6113074204947%" cy="99.741304972693302673%" r="3" fill="green"/>
  <circle cx="69.96466431095406%" cy="99.97125610807703363%" r="3" fill="green"/>
  <circle cx="70.31802120141343%" cy="99.885024432308134521%" r="3" fill="green"/>
  <circle cx="70.6713780918728%" cy="99.942512216154067261%" r="3" fill="green"/>
  <circle cx="71.37809187279152%" cy="99.942512216154067261%" r="3" fill="green"/>
  <circle cx="72.08480565371025%" cy="99.798792756539235412%" r="3" fill="green"/>
  <circle cx="73.85159010600707%" cy="99.97125610807703363%" r="3" fill="green"/>
  <circle cx="74.20494699646643%" cy="99.97125610807703363%" r="3" fill="green"/>
  <circle cx="74.5583038869258%" cy="99.856280540385168152%" r="3" fill="green"/>
  <circle cx="74.91166077738517%" cy="99.913768324231100891%" r="3" fill="green"/>
  <circle cx="75.26501766784453%" cy="99.942512216154067261%" r="3" fill="green"/>
  <circle cx="75.61837455830388%" cy="99.942512216154067261%" r="3" fill="green"/>
  <circle cx="75.97173144876325%" cy="99.827536648462201782%" r="3" fill="green"/>
  <circle cx="76.32508833922262%" cy="99.856280540385168152%" r="3" fill="green"/>
  <circle cx="76.67844522968198%" cy="99.540097729232538086%" r="3" fill="green"/>
  <circle cx="77.03180212014135%" cy="99.683817188847369934%" r="3" fill="green"/>
  <circle cx="77.38515901060072%" cy="99.770048864616269043%" r="3" fill="green"/>
  <circle cx="77.73851590106007%" cy="99.798792756539235412%" r="3" fill="green"/>
  <circle cx="78.09187279151944%" cy="99.913768324231100891%" r="3" fill="green"/>
  <circle cx="78.4452296819788%" cy="99.856280540385168152%" r="3" fill="green"/>
  <circle cx="78.79858657243817%" cy="99.827536648462201782%" r="3" fill="green"/>
  <circle cx="79.15194346289753%" cy="99.798792756539235412%" r="3" fill="green"/>
  <circle cx="79.50530035335689%" cy="99.97125610807703363%" r="3" fill="green"/>
  <circle cx="79.85865724381625%" cy="99.856280540385168152%" r="3" fill="green"/>
  <circle cx="80.21201413427562%" cy="99.770048864616269043%" r="3" fill="green"/>
  <circle cx="80.56537102473499%" cy="99.770048864616269043%" r="3" fill="green"/>
  <circle cx="80.91872791519435%" cy="99.942512216154067261%" r="3" fill="green"/>
  <circle cx="81.27208480565372%" cy="99.827536648462201782%" r="3" fill="green"/>
  <circle cx="81.62544169611307%" cy="99.281402701925840759%" r="3" fill="green"/>
  <circle cx="81.97879858657244%" cy="99.683817188847369934%" r="3" fill="green"/>
  <circle cx="82.3321554770318%" cy="99.022707674619143432%" r="3" fill="green"/>
  <circle cx="82.68551236749117%" cy="99.482609945386605346%" r="3" fill="green"/>
  <circle cx="83.03886925795054%" cy="99.568841621155504455%" r="3" fill="green"/>
  <circle cx="83.3922261484099%" cy="99.338890485771773498%" r="3" fill="green"/>
  <circle cx="83.74558303886926%" cy="99.482609945386605346%" r="3" fill="green"/>
  <circle cx="84.09893992932862%" cy="99.108939350388042541%" r="3" fill="green"/>
  <circle cx="84.45229681978799%" cy="99.568841621155504455%" r="3" fill="green"/>
  <circle cx="84.80565371024736%" cy="99.425122161540672607%" r="3" fill="green"/>
  <circle cx="85.15901060070672%" cy="99.16642713423397528%" r="3" fill="green"/>
  <circle cx="85.51236749116607%" cy="99.19517102615694165%" r="3" fill="green"/>
  <circle cx="85.86572438162544%" cy="99.482609945386605346%" r="3" fill="green"/>
  <circle cx="86.21908127208481%" cy="99.252658810002874389%" r="3" fill="green"/>
  <circle cx="86.57243816254417%" cy="99.338890485771773498%" r="3" fill="green"/>
  <circle cx="86.92579505300354%" cy="98.764012647312446105%" r="3" fill="green"/>
  <circle cx="87.2791519434629%" cy="97.413049726933026732%" r="3" fill="green"/>
  <circle cx="87.63250883392226%" cy="96.292037941937338316%" r="3" fill="green"/>
  <circle cx="87.98586572438163%" cy="95.286001724633515378%" r="3" fill="green"/>
  <circle cx="88.33922261484099%" cy="94.107502155791894222%" r="3" fill="green"/>
  <circle cx="88.69257950530036%" cy="95.400977292325380857%" r="3" fill="green"/>
  <circle cx="89.04593639575972%" cy="97.815464213854555907%" r="3" fill="green"/>
  <circle cx="89.39929328621909%" cy="98.016671457315320494%" r="3" fill="green"/>
  <circle cx="89.75265017667844%" cy="95.630928427709111814%" r="3" fill="green"/>
  <circle cx="90.10600706713781%" cy="95.630928427709111814%" r="3" fill="green"/>
  <circle cx="90.45936395759718%" cy="97.355561943087093993%" r="3" fill="green"/>
  <circle cx="90.81272084805654%" cy="97.58551307847082495%" r="3" fill="green"/>
  <circle cx="91.16607773851591%" cy="97.614256970393791319%" r="3" fill="green"/>
  <circle cx="91.51943462897526%" cy="97.930439781546421385%" r="3" fill="green"/>
  <circle cx="91.87279151943463%" cy="96.004599022707674619%" r="3" fill="green"/>
  <circle cx="92.226148409894%" cy="95.429721184248347226%" r="3" fill="green"/>
  <circle cx="92.57950530035336%" cy="94.969818913480885312%" r="3" fill="green"/>
  <circle cx="92.93286219081273%" cy="96.550732969244035642%" r="3" fill="green"/>
  <circle cx="93.2862190812721%" cy="96.636964645012934751%" r="3" fill="green"/>
  <circle cx="93.63957597173145%" cy="96.292037941937338316%" r="3" fill="green"/>
  <circle cx="93.99293286219081%" cy="95.458465076171313596%" r="3" fill="green"/>
  <circle cx="94.34628975265018%" cy="98.275366484622017821%" r="3" fill="green"/>
  <circle cx="94.69964664310955%" cy="97.326818051164127623%" r="3" fill="green"/>
  <circle cx="95.05300353356891%" cy="98.735268755389479736%" r="3" fill="green"/>
  <circle cx="95.40636042402828%" cy="99.051451566542109802%" r="3" fill="green"/>
  <circle cx="95.75971731448763%" cy="98.419085944236849669%" r="3" fill="green"/>
  <circle cx="96.113074204947%" cy="98.649037079620580627%" r="3" fill="green"/>
  <circle cx="96.46643109540636%" cy="98.447829836159816039%" r="3" fill="green"/>
  <circle cx="96.81978798586573%" cy="98.821500431158378844%" r="3" fill="green"/>
  <circle cx="97.1731448763251%" cy="98.850244323081345214%" r="3" fill="green"/>
  <circle cx="97.52650176678445%" cy="98.3903420523138833%" r="3" fill="green"/>
  <circle cx="97.87985865724382%" cy="97.298074159241161253%" r="3" fill="green"/>
  <circle cx="98.23321554770318%" cy="94.107502155791894222%" r="3" fill="green"/>
  <circle cx="98.58657243816255%" cy="96.234550158091405576%" r="3" fill="green"/>
  <circle cx="98.93992932862191%" cy="93.705087668870365047%" r="3" fill="green"/>
  <circle cx="99.29328621908128%" cy="99.022707674619143432%" r="3" fill="green"/>
  <circle cx="99.64664310954063%" cy="98.534061511928715148%" r="3" fill="green"/>
  <circle cx="100%" cy="99.885024432308134521%" r="3" fill="green"/>
</svg>