<svg xmlns="http://www.w3.org/2000/svg" width="100%" height="100%">
  <style>
path{
  stroke:black ;
  stroke-width:3;
  fill:transparent; 
}
.link:hover{
  stroke:red ;
  stroke-width:3;
}

</style>
  <path class="back" id="1" d="M 800 500 687.04694055762 734.549444740409 433.2437198131057 792.4783736545471 229.70933962927427 630.1651217352675 229.70933962927427 369.8348782647326 433.2437198131056 207.5216263454529 687.04694055762 265.45055525959106  Z"/>
  <text x="830" y="500" text-anchor="middle">Jules</text>
  <text x="705.7516346133821" y="758.0043892144498" text-anchor="middle">Julien</text>
  <text x="426.56809179441626" y="821.7262110200018" text-anchor="middle">Janine</text>
  <text x="202.68027359220173" y="643.1816339087942" text-anchor="middle">Jean</text>
  <text x="202.68027359220167" y="356.81836609120586" text-anchor="middle">Julie</text>
  <text x="426.5680917944162" y="178.2737889799982" text-anchor="middle">Jordan</text>
  <text x="705.7516346133821" y="241.99561078555013" text-anchor="middle">Jeanne</text>
  <path class="link" d="M800 500 Q 500 500 433.2437198131057 792.4783736545471 Q 500 500 800 500"/>
  <path class="link" d="M800 500 Q 500 500 687.04694055762 734.549444740409 Q 500 500 800 500"/>
  <path class="link" d="M229.70933962927427 630.1651217352675 Q 500 500 229.70933962927427 369.8348782647326 Q 500 500 229.70933962927427 630.1651217352675"/>
  <path class="link" d="M229.70933962927427 369.8348782647326 Q 500 500 433.2437198131057 792.4783736545471 Q 500 500 229.70933962927427 369.8348782647326"/>
  <path class="link" d="M800 500 Q 500 500 229.70933962927427 369.8348782647326 Q 500 500 800 500"/>
  <path class="link" d="M800 500 Q 500 500 229.70933962927427 630.1651217352675 Q 500 500 800 500"/>
  <path class="link" d="M800 500 Q 500 500 687.04694055762 265.45055525959106 Q 500 500 800 500"/>
</svg>